<svg version="1.1"
	 xmlns="http://www.w3.org/2000/svg" xmlns:xlink="http://www.w3.org/1999/xlink" viewBox="0 0 564.7 98.2">
  <!-- Text using the #pattern in defs as the fill -->
  <!-- <text x="50%" text-anchor="middle" y="50%" dy="0.4em" fill="url(#pattern)" font-family="Arial, sans-serif" font-weight="800" font-size="50vh">LOADING</text> -->
  <!-- Generator: Adobe Illustrator 21.1.0, SVG Export Plug-In  -->
  <style type="text/css">
  	.st0{fill:url(#pattern);}
  </style>

  $blue:#333E48;
  $teal:#4D868E;
  $green:#A8C643;
  $brandGreen:#82BC00;
  $lightGray:#E6E7E8;
  $gray:#333E48;
  $darkGray:#848B91;


  <defs>  
    <!-- Da gradient -->
    <linearGradient id="gradient" x1="0%" y1="0%" x2="100%" y2="0">
      <stop offset="0%" style="stop-color:#333E48"/>
      <stop offset="14.3%" style="stop-color:#4D868E;"/>
      <stop offset="28.6%" style="stop-color:#4D868E;"/>
      <stop offset="42.9%" style="stop-color:#333E48"/>
      <stop offset="57.2%" style="stop-color:#333E48"/>
      <stop offset="85.8%" style="stop-color:#4D868E;"/>
      <stop offset="100%" style="stop-color:#333E48"/>
    </linearGradient>
    
    <!-- Stitch 2 gradients together for seamless animation  -->
    <pattern id="pattern" x="0" y="0" width="300%" height="100%" patternUnits="userSpaceOnUse">
      <rect x="0" y="0" width="150%" height="100%" fill="url(#gradient)">
        <animate attributeType="XML"
                 attributeName="x"
                 from="0" to="150%"
                 dur="2s"
                 repeatCount="indefinite"/>
      </rect>
      <rect x="-150%" y="0" width="150%" height="100%" fill="url(#gradient)">
        <animate attributeType="XML"
                 attributeName="x"
                 from="-150%" to="0"
                 dur="2s"
                 repeatCount="indefinite"/>
      </rect>
    </pattern>

    <!-- Pull in font -->
    <!-- Copied from: https://static.sonos.com/v1/fonts/logo/sonos-logo-regular-webfont.svg -->
    
  </defs>

  <path class="st0" d="M240.3000488,59.6999512H225.500061l0.7999878-3.5999756h4.7999878l9.7999878-42.2000122h-5.3999634
  l0.7999878-3.7000122h15.2000122l-0.9000244,3.7000122h-5.2000122l-4.2000122,18h24.5l4.2000122-18h-5.2000122l0.8000488-3.7000122
  h13.5999756l-0.9000244,3.7000122h-3.7999878l-9.7999878,42.2000122h5.4000244l-0.9000244,3.5999756h-15l0.9000244-3.5999756
  h5.0999756l4.7999878-20.6000366h-24.5l-4.7999878,20.6000366h5.5999756L240.3000488,59.6999512z M274.7000122,56.0999756
  l-0.7999878,3.5999756h35.6000366l3.5-15.5h-3.6000366l-2.7999878,11.9000244h-22.4000244l4.6000366-19.9000244h18
  l0.8999634-3.5999756h-18l4.3000488-18.7000122h22l-2.7000122,11.9000244h3.5999756l3.6000366-15.6000366h-35.7000122
  l-0.7999878,3.7000122h5.5l-9.8000488,42.2000122H274.7000122z M357.4000854,56.0999756h6.3999634l-0.8999634,3.5999756h-17
  l0.8999634-3.5999756h6.1000366l-1.7000122-14.9000244h-19.1000366l-7.7000122,14.9000244h5.9000244l-0.9000244,3.5999756
  h-16.499939l0.8999634-3.5999756h6.2000122l22.4000244-42.2000122h-6.2000122l0.8999634-3.5999756h21.7999878l-0.8999634,3.5999756
  h-5.5L357.4000854,56.0999756z M350.8000488,37.5999756l-2.5999756-24.2999878h-1.5L334.000061,37.5999756H350.8000488z
   M395.4000244,56.0999756h-19.7000122l9.8000488-42.2000122h5.5999756l0.9000244-3.7000122h-16.1000366l-0.7999878,3.7000122
  h5.9000244l-9.8000488,42.2000122h-5.5999756l-0.7999878,3.5999756h34.0999756l4.7999878-20.7000122h-4.2999878
  L395.4000244,56.0999756z M412.8000488,13.8999634h12.2000122l-9.8000488,42.2000122h-5.5l-0.6999512,3.5999756h15.3999634
  l0.7999878-3.5999756h-5.5l9.8000488-42.2000122h12.1999512l-3.5,15.2000122h3.7000122l4.4000244-18.9000244H410.000061
  l-4.4000244,18.9000244h3.7000122L412.8000488,13.8999634z M479.8000488,10.1999512L479,13.8999634h5.2000122l-4.2000122,18
  h-24.499939l4.0999756-18h5.2999878l0.9000244-3.7000122h-15.2000122l-0.9000244,3.7000122h5.4000244l-9.7000122,42.2000122
  h-4.7999878l-0.9000244,3.5999756h14.9000244l0.9000244-3.5999756h-5.6000366l4.7999878-20.6000366h24.5l-4.7999878,20.6000366
  h-5.0999756l-0.9000244,3.5999756h15l0.9000244-3.5999756h-5.4000244l9.7999878-42.2000122H492.5l0.9000244-3.7000122H479.8000488z
   M236.6000977,80.8999634c0.2999878,0.7000122,0.3999634,1.4000244,0.3999634,2.2000122v0.7000122h-9.5
  c0,0.5999756,0.2000122,1.0999756,0.4000244,1.5999756c0.1999512,0.5,0.5,0.9000244,0.8999634,1.2999878
  c0.4000244,0.4000244,0.7999878,0.7000122,1.2999878,0.9000244s1,0.2999878,1.6000366,0.2999878
  c0.7999878,0,1.5999756-0.2000122,2.2000122-0.5999756c0.5999756-0.4000244,1.0999756-0.9000244,1.3999634-1.4000244l1.2000122,1
  c-0.5999756,0.7999878-1.4000244,1.4000244-2.2000122,1.7999878c-0.7999878,0.4000244-1.7000122,0.6000366-2.5999756,0.6000366
  c-0.7999878,0-1.5999756-0.1000366-2.2999878-0.4000244c-0.7999878-0.2999878-1.4000244-0.7999878-1.9000244-1.2999878
  s-0.9000244-1.2000122-1.2000122-1.9000244s-0.3999634-1.5-0.3999634-2.3999634
  c0-0.9000244,0.0999756-1.7000122,0.3999634-2.4000244c0.3000488-0.7000122,0.7000122-1.4000244,1.2000122-1.9000244
  c0.5-0.5999756,1.0999756-1,1.7999878-1.2999878s1.5-0.5,2.2999878-0.5c0.9000244,0,1.5999756,0.2000122,2.2999878,0.5
  s1.2000122,0.7000122,1.7000122,1.2000122C236.000061,79.3999634,236.4000244,79.999939,236.6000977,80.8999634z
   M235.3000488,82.1999512c0-1-0.4000244-1.9000244-1-2.5999756c-0.6000366-0.7000122-1.5-1-2.7000122-1
  c-0.5,0-1,0.0999756-1.5,0.2999878s-0.9000244,0.5-1.2999878,0.7999878
  c-0.4000244,0.4000244-0.7000122,0.7999878-0.9000244,1.2000122c-0.1856689,0.4642944-0.276001,0.8480225-0.2892456,1.2999878
  H235.3000488z M249.1000366,77.499939h-2l-3,4.2000122l-3.2000122-4.2000122h-2.2000122l4.2000122,5.3000488l-4.7000122,6h2
  l3.7000122-5l3.7999878,5h2.2000122l-4.7999878-6L249.1000366,77.499939z M263.3000488,80.6999512
  c0.2999878,0.7000122,0.3999634,1.5,0.3999634,2.3999634c0,0.9000244-0.0999756,1.7000122-0.3999634,2.4000244
  s-0.7999878,1.4000244-1.2999878,1.9000244c-0.5,0.5999756-1.2000122,1-1.9000244,1.2999878
  c-0.6999512,0.2000122-1.5,0.4000244-2.3999634,0.4000244c-0.4000244,0-0.8000488,0-1.2000122-0.1000366
  c-0.4000244-0.0999756-0.8000488-0.2000122-1.2000122-0.3999634c-0.4000244-0.2000122-0.7000122-0.4000244-1.1000366-0.7000122
  c-0.2999878-0.2999878-0.5999756-0.6000366-0.8999634-1v8.8999634h-1.6000366V77.3999634h1.6000366v1.8999634
  c0.1999512-0.3999634,0.5999756-0.6999512,0.8999634-1c0.3000488-0.2999878,0.7000122-0.5,1.1000366-0.6999512
  c0.4000244-0.2000122,0.7999878-0.3000488,1.2000122-0.4000244s0.7999878-0.0999756,1.2000122-0.0999756
  c0.7999878,0,1.6999512,0.1999512,2.3999634,0.5c0.7000122,0.2999878,1.4000244,0.7999878,1.9000244,1.2999878
  C262.6000366,79.3999634,263.000061,79.999939,263.3000488,80.6999512z M262,83.0999756
  c0-0.7000122-0.0999756-1.2000122-0.2999878-1.8000488c-0.1999512-0.5-0.5-1-0.8999634-1.3999634
  c-0.2999878-0.4000244-0.7999878-0.7999878-1.2999878-1c-0.5-0.2999878-1.0999756-0.4000244-1.7999878-0.4000244
  c-0.5999756,0-1.2999878,0.2000122-1.7999878,0.4000244c-0.5,0.2999878-1,0.5999756-1.4000244,1
  c-0.3999634,0.3999634-0.6999512,0.7999878-0.8999634,1.3999634c-0.2000122,0.6000366-0.2999878,1.2000122-0.2999878,1.8000488
  c0,0.7000122,0.0999756,1.2000122,0.2999878,1.7999878c0.1999512,0.5,0.5,1,0.8999634,1.4000244
  c0.4000244,0.3999634,0.7999878,0.7999878,1.4000244,1c0.5,0.2999878,1.0999756,0.3999634,1.7999878,0.3999634
  c0.6999512,0,1.2999878-0.2000122,1.7999878-0.3999634c0.5-0.3000488,0.8999634-0.6000366,1.2999878-1
  c0.3999634-0.4000244,0.6999512-0.9000244,0.8999634-1.4000244S262.000061,83.7999878,262,83.0999756z M276.6000977,80.8999634
  c0.2999878,0.7000122,0.3999634,1.4000244,0.3999634,2.2000122v0.7000122h-9.5c0,0.5999756,0.2000122,1.0999756,0.4000244,1.5999756
  c0.1999512,0.5,0.5,0.9000244,0.8999634,1.2999878c0.4000244,0.4000244,0.7999878,0.7000122,1.2999878,0.9000244
  s1,0.2999878,1.6000366,0.2999878c0.7999878,0,1.5999756-0.2000122,2.2000122-0.5999756
  c0.5999756-0.4000244,1.0999756-0.9000244,1.3999634-1.4000244l1.2000122,1
  c-0.5999756,0.7999878-1.4000244,1.4000244-2.2000122,1.7999878c-0.7999878,0.4000244-1.7000122,0.6000366-2.5999756,0.6000366
  c-0.7999878,0-1.5999756-0.1000366-2.2999878-0.4000244c-0.7999878-0.2999878-1.4000244-0.7999878-1.9000244-1.2999878
  s-0.9000244-1.2000122-1.2000122-1.9000244s-0.3999634-1.5-0.3999634-2.3999634
  c0-0.9000244,0.0999756-1.7000122,0.3999634-2.4000244c0.3000488-0.7000122,0.7000122-1.4000244,1.2000122-1.9000244
  c0.5-0.5999756,1.0999756-1,1.7999878-1.2999878s1.5-0.5,2.2999878-0.5c0.9000244,0,1.5999756,0.2000122,2.2999878,0.5
  s1.2000122,0.7000122,1.7000122,1.2000122S276.4000244,79.999939,276.6000977,80.8999634z M275.3000488,82.1999512
  c0-1-0.4000244-1.9000244-1-2.5999756c-0.6000366-0.7000122-1.5-1-2.7000122-1c-0.5,0-1,0.0999756-1.5,0.2999878
  s-0.9000244,0.5-1.2999878,0.7999878c-0.4000244,0.4000244-0.7000122,0.7000122-0.9000244,1.2000122
  c-0.1856689,0.4642944-0.276001,0.8480225-0.2892456,1.2999878H275.3000488z M282.3000488,79.8999634
  c0.3999634-0.4000244,0.7999878-0.7000122,1.2999878-0.9000244c0.5-0.1999512,1.0999756-0.2999878,1.7999878-0.2999878
  c0.5999756,0,1.2000122,0.0999756,1.7000122,0.4000244c0.5,0.2999878,0.8999634,0.5999756,1.2000122,1.0999756l1.2999878-1
  c-0.6000366-0.7000122-1.2000122-1.2000122-1.9000244-1.5s-1.5-0.5-2.2000122-0.5c-0.8999634,0-1.7999878,0.0999756-2.5,0.4000244
  c-0.7000122,0.2999878-1.3999634,0.6999512-1.8999634,1.1999512s-0.9000244,1.2000122-1.2000122,1.9000244
  S279.5,82.1999512,279.5,83.0999756c0,0.8999634,0.1000366,1.6999512,0.4000244,2.3999634s0.7000122,1.4000244,1.2000122,1.9000244
  s1.2000122,1,1.8999634,1.2999878c0.7000122,0.2999878,1.6000366,0.4000244,2.5,0.4000244c0.7999878,0,1.5-0.2000122,2.2000122-0.5
  s1.4000244-0.7999878,1.9000244-1.5l-1.2999878-1c-0.2999878,0.3999634-0.7000122,0.7999878-1.2000122,1.0999756
  S286,87.5999756,285.4000244,87.5999756c-0.7000122,0-1.2999878-0.1000366-1.7999878-0.2999878
  c-0.5-0.2000122-1-0.5-1.2999878-0.9000244c-0.4000244-0.4000244-0.7000122-0.9000244-0.7999878-1.4000244
  c-0.2000122-0.5999756-0.2999878-1.1999512-0.2999878-1.7999878c0-0.5999756,0.0999756-1.2000122,0.2999878-1.7999878
  C281.6000366,80.7999878,281.9000244,80.2999878,282.3000488,79.8999634z M296.8000488,87.499939
  c-0.2999878,0.1000366-0.6000366,0.1000366-0.9000244,0.1000366c-0.2000122,0-0.5,0-0.7000122-0.1000366
  c-0.2000122-0.0999756-0.3999634-0.1999512-0.5-0.2999878c-0.0999756-0.0999756-0.2999878-0.3999634-0.2999878-0.5999756
  c-0.0999756-0.2999878-0.0999756-0.6000366-0.0999756-1v-6.7000122h3.2999878v-1.5h-3.2999878v-3.2000122h-1.6000366v3.2000122
  h-2.3999634v1.5h2.3999634v7.2000122c0,0.5999756,0.1000366,1.0999756,0.2999878,1.5
  c0.2000122,0.3999634,0.4000244,0.7000122,0.7000122,0.8999634c0.2999878,0.2000122,0.6000366,0.4000244,0.9000244,0.5
  c0.2999878,0.1000366,0.7000122,0.1000366,1,0.1000366c0.7999878,0,1.5999756-0.1000366,2.2000122-0.4000244l-0.1000366-1.5
  C297.3000488,87.3999634,297.1000366,87.499939,296.8000488,87.499939z M318.2000122,80.6999512
  c0.2000122,0.7000122,0.4000244,1.5,0.4000244,2.3999634c0,0.9000244-0.1000366,1.7000122-0.4000244,2.4000244
  s-0.7999878,1.4000244-1.2999878,1.9000244c-0.5,0.5999756-1.1999512,1-1.8999634,1.2999878
  c-0.7000122,0.2000122-1.5,0.4000244-2.4000244,0.4000244c-0.4000244,0-0.7999878,0-1.2000122-0.1000366
  c-0.4000244-0.0999756-0.7999878-0.2000122-1.2000122-0.3999634c-0.3999634-0.2000122-0.7000122-0.4000244-1.0999756-0.7000122
  c-0.2999878-0.2999878-0.6000366-0.6000366-0.9000244-1v1.8999634h-1.5999756V70.3999634h1.5999756v8.8999634
  c0.2000122-0.3999634,0.5-0.6999512,0.9000244-1c0.2999878-0.2999878,0.7000122-0.5,1.0999756-0.6999512
  c0.4000244-0.2000122,0.8000488-0.3000488,1.2000122-0.4000244c0.4000244-0.0999756,0.8000488-0.0999756,1.2000122-0.0999756
  c0.7999878,0,1.7000122,0.1999512,2.4000244,0.5c0.6999512,0.2999878,1.3999634,0.7999878,1.8999634,1.2999878
  S317.9000244,79.999939,318.2000122,80.6999512z M316.9000244,83.0999756c0-0.7000122-0.0999756-1.2000122-0.2999878-1.8000488
  c-0.1999512-0.5-0.5-1-0.8999634-1.3999634c-0.2999878-0.4000244-0.7999878-0.7999878-1.2999878-1
  c-0.5-0.2999878-1.0999756-0.4000244-1.7999878-0.4000244c-0.5999756,0-1.2000122,0.2000122-1.7999878,0.4000244
  c-0.5,0.2999878-1,0.5999756-1.4000244,1c-0.3999634,0.3999634-0.6999512,0.7999878-0.8999634,1.3999634
  c-0.2000122,0.6000366-0.2999878,1.2000122-0.2999878,1.8000488c0,0.7000122,0.0999756,1.2000122,0.2999878,1.7999878
  c0.1999512,0.5,0.5,1,0.8999634,1.4000244c0.4000244,0.3999634,0.9000244,0.7999878,1.4000244,1
  c0.5,0.2999878,1.0999756,0.3999634,1.7999878,0.3999634c0.6999512,0,1.2999878-0.2000122,1.7999878-0.3999634
  c0.5-0.3000488,0.8999634-0.6000366,1.2999878-1c0.3999634-0.4000244,0.6999512-0.9000244,0.8999634-1.4000244
  S316.9000244,83.7999878,316.9000244,83.0999756z M331.500061,80.8999634
  c0.2999878,0.7000122,0.4000244,1.4000244,0.4000244,2.2000122v0.7000122h-9.5c0,0.5999756,0.1999512,1.0999756,0.3999634,1.5999756
  s0.5,0.9000244,0.9000244,1.2999878c0.3999634,0.4000244,0.7999878,0.7000122,1.2999878,0.9000244s1,0.2999878,1.5999756,0.2999878
  c0.8000488,0,1.6000366-0.2000122,2.2000122-0.5999756c0.6000366-0.4000244,1.1000366-0.9000244,1.4000244-1.4000244l1.2000122,1
  c-0.6000366,0.7999878-1.4000244,1.4000244-2.2000122,1.7999878c-0.8000488,0.4000244-1.7000122,0.6000366-2.6000366,0.6000366
  c-0.7999878,0-1.5999756-0.1000366-2.2999878-0.4000244c-0.7999878-0.2999878-1.3999634-0.7999878-1.8999634-1.2999878
  s-0.9000244-1.2000122-1.2000122-1.9000244s-0.4000244-1.5-0.4000244-2.3999634
  c0-0.9000244,0.1000366-1.7000122,0.4000244-2.4000244s0.7000122-1.4000244,1.2000122-1.9000244
  c0.5-0.5999756,1.0999756-1,1.7999878-1.2999878c0.6999512-0.2999878,1.5-0.5,2.2999878-0.5
  c0.8999634,0,1.5999756,0.2000122,2.2999878,0.5s1.2000122,0.7000122,1.7000122,1.2000122
  S331.3000488,79.999939,331.500061,80.8999634z M330.2000122,82.1999512c0-1-0.3999634-1.9000244-1-2.5999756
  c-0.5999756-0.7000122-1.5-1-2.7000122-1c-0.5,0-1,0.0999756-1.5,0.2999878s-0.8999634,0.5-1.2999878,0.7999878
  c-0.3999634,0.4000244-0.7000122,0.7000122-0.8999634,1.2000122c-0.18573,0.4642944-0.276001,0.8480225-0.2892456,1.2999878
  H330.2000122z M339.9000244,87.499939c-0.2999878,0.1000366-0.5999756,0.1000366-0.8999634,0.1000366
  c-0.2000122,0-0.5,0-0.7000122-0.1000366c-0.2000122-0.0999756-0.4000244-0.1999512-0.5-0.2999878
  c-0.1000366-0.0999756-0.2999878-0.3999634-0.2999878-0.5999756c-0.1000366-0.2999878-0.1000366-0.6000366-0.1000366-1v-6.7000122
  h3.2999878v-1.5h-3.2999878v-3.2000122h-1.5999756v3.2000122h-2.4000244v1.5h2.4000244v7.2000122
  c0,0.5999756,0.0999756,1.0999756,0.2999878,1.5c0.2000122,0.3999634,0.3999634,0.7000122,0.7000122,0.8999634
  c0.2999878,0.2000122,0.5999756,0.4000244,0.8999634,0.5c0.2999878,0.1000366,0.7000122,0.1000366,1,0.1000366
  c0.7999878,0,1.6000366-0.1000366,2.2000122-0.4000244l-0.0999756-1.5
  C340.500061,87.3999634,340.2000122,87.499939,339.9000244,87.499939z M348.000061,87.499939
  c-0.2999878,0.1000366-0.6000366,0.1000366-0.7999878,0.1000366c-0.2000122,0-0.5,0-0.7000122-0.1000366
  c-0.2000122-0.0999756-0.4000244-0.1999512-0.5-0.2999878c-0.1000366-0.0999756-0.2999878-0.3999634-0.2999878-0.5999756
  c-0.1000366-0.2999878-0.1000366-0.6000366-0.1000366-1v-6.7000122h3.2999878v-1.5h-3.2999878v-3.2000122h-1.5999756v3.2000122
  h-2.4000244v1.5h2.4000244v7.2000122c0,0.5999756,0.0999756,1.0999756,0.2999878,1.5
  c0.2000122,0.3999634,0.3999634,0.7000122,0.7000122,0.8999634c0.2999878,0.2000122,0.5999756,0.4000244,0.8999634,0.5
  c0.2999878,0.1000366,0.7000122,0.1000366,1,0.1000366c0.7999878,0,1.6000366-0.1000366,2.2000122-0.4000244l-0.0999756-1.5
  C348.6000366,87.3999634,348.3000488,87.499939,348.000061,87.499939z M361.2000732,80.8999634
  c0.2999878,0.7000122,0.4000244,1.4000244,0.4000244,2.2000122v0.7000122h-9.5c0,0.5999756,0.1999512,1.0999756,0.3999634,1.5999756
  s0.5,0.9000244,0.9000244,1.2999878c0.3999634,0.4000244,0.7999878,0.7000122,1.2999878,0.9000244s1,0.2999878,1.5999756,0.2999878
  c0.8000488,0,1.6000366-0.2000122,2.2000122-0.5999756c0.6000366-0.4000244,1.1000366-0.9000244,1.4000244-1.4000244l1.2000122,1
  c-0.6000366,0.7999878-1.4000244,1.4000244-2.2000122,1.7999878c-0.8000488,0.4000244-1.7000122,0.6000366-2.6000366,0.6000366
  c-0.7999878,0-1.5999756-0.1000366-2.2999878-0.4000244c-0.7999878-0.2999878-1.3999634-0.7999878-1.8999634-1.2999878
  s-0.9000244-1.2000122-1.2000122-1.9000244s-0.5-1.5-0.5-2.3999634c0-0.9000244,0.0999756-1.7000122,0.3999634-2.4000244
  c0.3000488-0.7000122,0.7000122-1.4000244,1.2000122-1.9000244c0.5-0.5999756,1.0999756-1,1.7999878-1.2999878
  s1.5-0.5,2.2999878-0.5c0.9000244,0,1.5999756,0.2000122,2.2999878,0.5s1.2000122,0.7000122,1.7000122,1.2000122
  S360.9000854,80.1999512,361.2000732,80.8999634z M359.8000488,82.1999512c0-1-0.4000244-1.9000244-1-2.5999756
  c-0.6000366-0.7000122-1.5-1-2.7000122-1c-0.5,0-1,0.0999756-1.5,0.2999878s-0.9000244,0.5-1.2999878,0.7999878
  c-0.4000244,0.4000244-0.7000122,0.7000122-0.9000244,1.2000122c-0.1856689,0.4642944-0.276001,0.8480225-0.2892456,1.2999878
  H359.8000488z M368.500061,77.3999634c-0.4000244,0.0999756-0.7000122,0.2999878-1,0.5s-0.6000366,0.5-0.7999878,0.7999878
  c-0.2000122,0.2999878-0.4000244,0.6000366-0.5,0.9000244V77.499939h-1.6000366c0,0.8000488,0,1.5,0.1000366,2c0,0.5,0,1,0,1.5
  v7.8000488h1.5999756v-6.4000244c0-0.4000244,0.1000366-0.7999878,0.2000122-1.2000122
  c0.1000366-0.3999634,0.4000244-0.7999878,0.6000366-1.1999512c0.2999878-0.4000244,0.7000122-0.7000122,1.0999756-0.9000244
  c0.4000244-0.2000122,1-0.4000244,1.6000366-0.4000244c0.3999634,0,0.7000122,0,0.8999634,0.1000366l0.2999878-1.6000366
  c-0.2999878-0.0999756-0.7000122-0.0999756-1.2000122-0.0999756
  C369.3000488,77.1999512,368.8000488,77.1999512,368.500061,77.3999634z M384.7000122,77.1999512
  c-0.3999634,0-0.7000122,0.1000366-1.0999756,0.2000122c-0.4000244,0.0999756-0.7000122,0.2999878-1.1000366,0.4000244
  c-0.2999878,0.1999512-0.5999756,0.3999634-0.8999634,0.6999512c-0.2999878,0.3000488-0.5,0.5-0.7000122,0.8000488V70.499939
  h-1.6000366v18.4000244h1.6000366v-5.7999878c0-1,0.2000122-1.8000488,0.5-2.4000244s0.7000122-1,1.0999756-1.2999878
  c0.4000244-0.2999878,0.7999878-0.5,1.2000122-0.5c0.4000244-0.1000366,0.6000366-0.1000366,0.7000122-0.1000366
  c1.2000122,0,2,0.3000488,2.4000244,1c0.3999634,0.7000122,0.7000122,1.6000366,0.7000122,2.9000244v6.2999878h1.5999756v-7.1999512
  c0-1.4000244-0.2999878-2.5-1-3.3000488C387.3000488,77.5999756,386.2000122,77.1999512,384.7000122,77.1999512z
   M402.9000854,80.8999634c0.2999878,0.7000122,0.3999634,1.4000244,0.3999634,2.2000122v0.7000122h-9.5
  c0,0.5999756,0.2000122,1.0999756,0.4000244,1.5999756c0.1999512,0.5,0.5,0.9000244,0.8999634,1.2999878
  c0.4000244,0.4000244,0.7999878,0.7000122,1.2999878,0.9000244s1,0.2999878,1.6000366,0.2999878
  c0.7999878,0,1.5999756-0.2000122,2.2000122-0.5999756c0.5999756-0.4000244,1.0999756-0.9000244,1.3999634-1.4000244l1.2000122,1
  c-0.5999756,0.7999878-1.4000244,1.4000244-2.2000122,1.7999878c-0.7999878,0.4000244-1.7000122,0.6000366-2.5999756,0.6000366
  c-0.7999878,0-1.5999756-0.1000366-2.2999878-0.4000244c-0.7999878-0.2999878-1.4000244-0.7999878-1.9000244-1.2999878
  s-0.9000244-1.2000122-1.2000122-1.9000244s-0.3999634-1.5-0.3999634-2.3999634
  c0-0.9000244,0.0999756-1.7000122,0.3999634-2.4000244c0.3000488-0.7000122,0.7000122-1.4000244,1.2000122-1.9000244
  c0.5-0.5999756,1.1000366-1,1.7999878-1.2999878c0.7000122-0.2999878,1.5-0.5,2.2999878-0.5
  c0.9000244,0,1.5999756,0.2000122,2.2999878,0.5s1.2000122,0.7000122,1.7000122,1.2000122
  S402.8000488,79.999939,402.9000854,80.8999634z M401.6000366,82.1999512c0-1-0.4000244-1.9000244-1-2.5999756
  c-0.6000366-0.7000122-1.5-1-2.7000122-1c-0.5,0-1,0.0999756-1.5,0.2999878s-0.9000244,0.5-1.2999878,0.7999878
  c-0.4000244,0.4000244-0.7000122,0.7000122-0.9000244,1.2000122c-0.1856689,0.4642944-0.276001,0.8480225-0.2892456,1.2999878
  H401.6000366z M415.500061,87.6999512c0,0.5,0.0999756,0.9000244,0.0999756,1.2000122h-1.5999756
  c0-0.2999878-0.1000366-0.5999756-0.1000366-0.9000244c0-0.2999878,0-0.5999756,0-0.8999634
  c-0.5,0.6999512-1.0999756,1.2999878-1.7000122,1.5999756c-0.5999756,0.2999878-1.3999634,0.5-2.2999878,0.5
  c-0.5,0-1-0.0999756-1.5-0.2000122c-0.5-0.0999756-0.8999634-0.2999878-1.2999878-0.5999756
  c-0.3999634-0.2000122-0.6999512-0.5999756-0.8999634-1s-0.2999878-0.7999878-0.2999878-1.4000244
  c0-0.8999634,0.2000122-1.6999512,0.7000122-2.1999512s1.0999756-0.9000244,1.7999878-1.2000122
  c0.6999512-0.2999878,1.499939-0.4000244,2.2999878-0.5c0.7999878-0.1000366,1.5-0.1000366,2.2000122-0.1000366h0.7999878
  v-0.2999878c0-1.8999634-1-2.8999634-2.9000244-2.8999634c-1.3999634,0-2.5,0.3999634-3.5,1.2999878l-1-1.1000366
  c1.0999756-1.0999756,2.7000122-1.6999512,4.7999878-1.6999512c0.6000366,0,1.1000366,0,1.6000366,0.1999512
  c0.5,0.1000366,0.8999634,0.4000244,1.2999878,0.7000122c0.3999634,0.2999878,0.6999512,0.7000122,0.8999634,1.2000122
  s0.2999878,1.0999756,0.2999878,1.7999878v5.1000366C415.2000122,86.6999512,415.2000122,87.1999512,415.500061,87.6999512z
   M413.6000366,83.999939H413.5v-0.8999634h-0.7999878c-0.3999634,0-0.8999634,0.0999756-1.5,0.0999756
  c-0.5999756,0-1.0999756,0.1000366-1.7000122,0.3000488c-0.5,0.0999756-1,0.3999634-1.3999634,0.6999512
  C407.7000122,84.5,407.5,84.8999634,407.5,85.5c0,0.3999634,0,0.6999512,0.2000122,1
  c0.1000366,0.2999878,0.3000488,0.5,0.6000366,0.6999512c0.2999878,0.2000122,0.5,0.3000488,0.8999634,0.4000244
  c0.4000244,0.0999756,0.7000122,0.0999756,1,0.0999756c0.6000366,0,1.1000366-0.0999756,1.5-0.2999878
  c0.4000244-0.2000122,0.8000488-0.5,1.1000366-0.7999878c0.2000122-0.4000244,0.5-0.7999878,0.5999756-1.2000122
  C413.500061,84.999939,413.6000366,84.499939,413.6000366,83.999939z M419.3000488,88.8999634h1.5999756V70.499939h-1.5999756
  V88.8999634z M429.8000488,87.499939c-0.2999878,0.1000366-0.6000366,0.1000366-0.9000244,0.1000366
  c-0.2000122,0-0.5,0-0.7000122-0.1000366c-0.2000122-0.0999756-0.3999634-0.1999512-0.5-0.2999878
  c-0.0999756-0.0999756-0.2999878-0.3999634-0.2999878-0.5999756c-0.0999756-0.2999878-0.0999756-0.6000366-0.0999756-1v-6.7000122
  h3.2999878v-1.5h-3.2999878v-3.2000122h-1.6000366v3.2000122h-2.3999634v1.5h2.3999634v7.2000122
  c0,0.5999756,0.1000366,1.0999756,0.2999878,1.5c0.2000122,0.3999634,0.4000244,0.7000122,0.7000122,0.8999634
  c0.2999878,0.2000122,0.6000366,0.4000244,0.9000244,0.5c0.2999878,0.1000366,0.7000122,0.1000366,1,0.1000366
  c0.7999878,0,1.5999756-0.1000366,2.2000122-0.4000244l-0.1000366-1.5
  C430.4000244,87.3999634,430.1000366,87.499939,429.8000488,87.499939z M438.2000122,77.1999512
  c-0.3999634,0-0.7000122,0.1000366-1.0999756,0.2000122C436.7000122,77.499939,436.4000244,77.6999512,436,77.7999878
  c-0.2999878,0.1999512-0.5999756,0.3999634-0.8999634,0.6999512c-0.2999878,0.3000488-0.5,0.5-0.7000122,0.8000488V70.499939
  h-1.6000366v18.4000244h1.6000366v-5.7999878c0-1,0.2000122-1.8000488,0.5-2.4000244s0.7000122-1,1.0999756-1.2999878
  c0.4000244-0.2999878,0.7999878-0.5,1.2000122-0.5c0.4000244-0.1000366,0.6000366-0.1000366,0.7000122-0.1000366
  c1.2000122,0,2,0.3000488,2.4000244,1c0.3999634,0.7000122,0.7000122,1.6000366,0.7000122,2.9000244v6.2999878h1.5999756v-7.1999512
  c0-1.4000244-0.2999878-2.5-1-3.3000488C440.8000488,77.5999756,439.7000122,77.1999512,438.2000122,77.1999512z
   M448.6000366,79.8999634c0.4000244-0.4000244,0.7999878-0.7000122,1.2999878-0.9000244
  c0.5-0.1999512,1.1000366-0.2999878,1.7999878-0.2999878c0.6000366,0,1.2000122,0.0999756,1.7000122,0.4000244
  c0.5,0.2999878,0.9000244,0.5999756,1.2000122,1.0999756l1.2999878-1c-0.5999756-0.7000122-1.2000122-1.2000122-1.8999634-1.5
  c-0.7000122-0.2999878-1.5-0.5-2.2000122-0.5c-0.9000244,0-1.7999878,0.0999756-2.5,0.4000244
  c-0.7000122,0.2999878-1.4000244,0.6999512-1.9000244,1.1999512s-0.8999634,1.2000122-1.2000122,1.9000244
  c-0.2999878,0.7000122-0.3999634,1.5-0.3999634,2.4000244c0,0.8999634,0.0999756,1.6999512,0.3999634,2.3999634
  s0.7000122,1.4000244,1.2000122,1.9000244s1.2000122,1,1.9000244,1.2999878s1.5999756,0.4000244,2.5,0.4000244
  c0.7999878,0,1.5-0.2000122,2.2000122-0.5s1.3999634-0.7999878,1.8999634-1.5l-1.2999878-1
  c-0.2999878,0.3999634-0.7000122,0.7999878-1.2000122,1.0999756s-1.0999756,0.4000244-1.7000122,0.4000244
  c-0.7000122,0-1.2999878-0.1000366-1.7999878-0.2999878c-0.5-0.2000122-1-0.5-1.2999878-0.9000244
  c-0.3999634-0.4000244-0.7000122-0.9000244-0.7999878-1.4000244c-0.2000122-0.5999756-0.2999878-1.1999512-0.2999878-1.7999878
  c0-0.5999756,0.1000366-1.2000122,0.2999878-1.7999878C447.9000244,80.7999878,448.2000122,80.2999878,448.6000366,79.8999634z
   M467.2000732,87.6999512c0,0.5,0.0999756,0.9000244,0.0999756,1.2000122h-1.5999756
  c0-0.2999878-0.1000366-0.5999756-0.1000366-0.9000244c0-0.2999878,0-0.5999756,0-0.8999634
  c-0.5,0.6999512-1.0999756,1.2999878-1.7000122,1.5999756c-0.5999756,0.2999878-1.3999634,0.5-2.2999878,0.5
  c-0.5,0-1-0.0999756-1.5-0.2000122c-0.5-0.0999756-0.8999634-0.2999878-1.2999878-0.5999756
  c-0.3999634-0.2000122-0.6999512-0.5999756-0.8999634-1s-0.2999878-0.7999878-0.2999878-1.4000244
  c0-0.8999634,0.2000122-1.6999512,0.7000122-2.1999512s1.0999756-0.9000244,1.7999878-1.2000122
  c0.6999512-0.2999878,1.5-0.4000244,2.2999878-0.5c0.7999878-0.1000366,1.5-0.1000366,2.2000122-0.1000366h0.7999878v-0.2999878
  c0-1.8999634-1-2.8999634-2.9000244-2.8999634c-1.3999634,0-2.5,0.3999634-3.5,1.2999878l-1-1.1000366
  c1.0999756-1.0999756,2.7000122-1.6999512,4.7999878-1.6999512c0.6000366,0,1.1000366,0,1.6000366,0.1999512
  c0.5,0.1000366,0.8999634,0.4000244,1.2999878,0.7000122c0.3999634,0.2999878,0.6999512,0.7000122,0.8999634,1.2000122
  s0.2999878,1.0999756,0.2999878,1.7999878v5.1000366C466.9000244,86.6999512,466.9000244,87.1999512,467.2000732,87.6999512z
   M465.3000488,83.999939h-0.2000122v-0.8999634h-0.7999878c-0.4000244,0-0.9000244,0.0999756-1.5,0.0999756
  c-0.6000366,0-1.1000366,0.1000366-1.7000122,0.2999878c-0.5,0.1000366-1,0.4000244-1.4000244,0.7000122
  c-0.3999634,0.2999878-0.5999756,0.7000122-0.5999756,1.2999878c0,0.4000244,0,0.7000122,0.2000122,1
  c0.0999756,0.3000488,0.2999878,0.5,0.5999756,0.7000122s0.5,0.2999878,0.9000244,0.4000244
  c0.3999634,0.0999756,0.7000122,0.0999756,1,0.0999756c0.5999756,0,1.1999512-0.0999756,1.5999756-0.2999878
  c0.3999634-0.2000122,0.8999634-0.4000244,1.0999756-0.7999878c0.2000122-0.4000244,0.5-0.7999878,0.6000366-1.2000122
  C465.2000122,84.999939,465.3000488,84.499939,465.3000488,83.999939z M474.6000366,77.3999634
  c-0.3999634,0.0999756-0.7000122,0.2999878-1,0.5s-0.5999756,0.5-0.7999878,0.7999878s-0.3999634,0.6000366-0.5,0.9000244V77.499939
  h-1.5999756c0,0.8000488,0,1.5,0.0999756,2c0,0.5,0,1,0,1.5v7.8000488h1.6000366v-6.4000244
  c0-0.4000244,0.0999756-0.7999878,0.2000122-1.2000122c0.0999756-0.3999634,0.3999634-0.7999878,0.5999756-1.1999512
  c0.2999878-0.4000244,0.7000122-0.7000122,1.1000366-0.9000244c0.3999634-0.2000122,1-0.4000244,1.5999756-0.4000244
  c0.4000244,0,0.7000122,0,0.9000244,0.1000366l0.2999878-1.6000366c-0.2999878-0.0999756-0.7000122-0.0999756-1.2000122-0.0999756
  C475.4000244,77.1999512,475.000061,77.1999512,474.6000366,77.3999634z M488.499939,80.8999634
  c0.3000488,0.7000122,0.4000244,1.4000244,0.4000244,2.2000122v0.7000122h-9.5c0,0.5999756,0.2000122,1.0999756,0.4000244,1.5999756
  s0.5,0.9000244,0.9000244,1.2999878C481.0999756,87.0999756,481.5,87.3999634,482,87.5999756s1,0.2999878,1.5999756,0.2999878
  c0.7999878,0,1.6000366-0.2000122,2.2000122-0.5999756c0.6000366-0.4000244,1.1000366-0.9000244,1.4000244-1.4000244l1.2000122,1
  c-0.6000366,0.7999878-1.4000244,1.4000244-2.2000122,1.7999878c-0.7999878,0.4000244-1.6999512,0.6000366-2.5999756,0.6000366
  c-0.7999878,0-1.5999756-0.1000366-2.2999878-0.4000244c-0.8000488-0.2999878-1.4000244-0.7999878-1.9000244-1.2999878
  S478.5,86.3999634,478.2000122,85.6999512s-0.5-1.5-0.5-2.3999634c0-0.9000244,0.1000366-1.7000122,0.4000244-2.4000244
  s0.7000122-1.4000244,1.2000122-1.9000244c0.5-0.5999756,1.0999756-1,1.7999878-1.2999878s1.5-0.5,2.2999878-0.5
  c0.8999634,0,1.5999756,0.2000122,2.2999878,0.5s1.2000122,0.7000122,1.7000122,1.2000122
  C487.8000488,79.3999634,488.2000122,79.999939,488.499939,80.8999634z M487.1000366,82.1999512
  c0-1-0.4000244-1.9000244-1-2.5999756c-0.6000366-0.7000122-1.5-1-2.7000122-1c-0.5,0-1,0.0999756-1.5,0.2999878
  s-0.8999634,0.5-1.2999878,0.7999878c-0.4000244,0.4000244-0.7000122,0.7000122-0.9000244,1.2000122
  c-0.18573,0.4642944-0.276001,0.8480225-0.2892456,1.2999878H487.1000366z M210.2999878,73.3999634l8,10.7999878l-10.7999878,8
  L208.1000366,88h-28.5h-39.8000488h-9.5h-0.6999512h-0.9000244C122,87.6999512,116.7999878,85.8999634,112.9000244,82.3999634
  C111.6000366,81.2999878,110.5,80,109.5,78.5H55.4000244l-0.5999756,4.0999756l-8-10.7999878l10.7999878-8L57,67.999939h62.2999878
  c3.5,0,6.2999878-0.8999634,8.2000122-2.5999756c1.8999634-1.7000122,3.0999756-4,3.5-6.7000122L131.5,55h-0.2000122
  c-1.5999756,1.7999878-3.5,3.0999756-5.5999756,3.8999634C123.5,59.5999756,121.5999756,60,119.7999878,60
  c-2.7999878,0-5.2999878-0.5-7.5-1.5s-4-2.3000488-5.3999634-4.1000366C105.5,52.5999756,104.5,50.5,104,48.0999756
  c-0.5999756-2.4000244-0.5999756-5-0.2000122-7.9000244c0.3000488-2.5,1.1000366-5,2.2000122-7.3999634
  c1.1000366-2.4000244,2.5-4.6000366,4.2999878-6.4000244c1.8000488-1.7999878,3.8000488-3.2999878,6.1000366-4.3999634
  c2.2999878-1.1000366,4.7999878-1.7000122,7.5-1.7000122c1.7000122,0,3.2000122,0.2000122,4.5999756,0.5999756
  c1.4000244,0.4000244,2.6000366,0.7999878,3.6000366,1.4000244c1.0999756,0.5,1.9000244,1.2000122,2.5999756,1.8999634
  c0.7000122,0.7000122,1.2000122,1.4000244,1.6000366,2.1000366h0.2000122l0.6999512-5h10.9000244l-5,35
  c-0.9000244,7.2999878-3.5,12.7999878-7.7000122,16.5C133,74.999939,130.1000366,76.499939,126.6000366,77.3999634
  c0.7999878,0.0999756,1.5999756,0.2000122,2.5,0.2000122H137h72.8000488L210.2999878,73.3999634z M133.3000488,43.7999878
  c0.5999756-1.1000366,1-2.3000488,1.1999512-3.6000366c0.2000122-1.2999878,0.1000366-2.5-0.1999512-3.5999756
  c-0.3000488-1.1000366-0.8000488-2.1000366-1.5-3c-0.7000122-0.9000244-1.6000366-1.6000366-2.7000122-2.1000366
  C129,30.999939,127.8000488,30.6999512,126.5,30.6999512c-1.3999634,0-2.6999512,0.2999878-3.8999634,0.7999878
  s-2.2999878,1.2000122-3.2999878,2.1000366c-0.9000244,0.8999634-1.7000122,1.8999634-2.4000244,3
  c-0.5999756,1.0999756-1,2.2999878-1.2000122,3.5999756c-0.1999512,1.2999878-0.0999756,2.5,0.2000122,3.6000366
  c0.2999878,1.0999756,0.7999878,2.0999756,1.5,3c0.7000122,0.8999634,1.5999756,1.5999756,2.7000122,2.0999756
  c1.0999756,0.5,2.2999878,0.7999878,3.7000122,0.7999878c1.2999878,0,2.5999756-0.2999878,3.7999878-0.7999878
  s2.2999878-1.2000122,3.2999878-2.0999756C131.8000488,45.999939,132.7000122,44.999939,133.3000488,43.7999878z M37,38.2999878
  h7.2000122l-1.3999634,9.8999634h-7.2000122l-1.5,11.2000122H22.8000488l1.5-11.2000122H0l1.4000244-9.8999634L29,3.6999512
  h12.9000244L37,38.2999878z M28.4000244,19.0999756h-0.2000122l-15,19.2000122h12.5L28.4000244,19.0999756z M67,50.7999878
  c-1.1999512,0.3999634-2.3999634,0.5999756-3.7999878,0.5999756c-1.7999878,0-3.2999878-0.4000244-4.5-1.0999756
  C57.5,49.5999756,56.4000244,48.5999756,55.4000244,47.1999512l-8.2999878,7.9000244
  C48.7000122,56.999939,50.7999878,58.3999634,53.5,59.1999512c2.6000366,0.7999878,5.3000488,1.1000366,7.9000244,1.1000366
  c2,0,4.0999756-0.2000122,6.2999878-0.6000366c2.1000366-0.3999634,4.1000366-1.0999756,5.9000244-2
  c1.7999878-1,3.3999634-2.2999878,4.7000122-3.8999634c1.2999878-1.6000366,2.0999756-3.6000366,2.3999634-6.1000366
  C81,45.2999878,80.8000488,43.3999634,80,41.8999634c-0.7999878-1.4000244-1.7999878-2.5999756-3.1999512-3.4000244
  c-1.4000244-0.7999878-2.9000244-1.5-4.5-1.7999878c-1.7000122-0.3999634-3.2000122-0.7999878-4.6000366-1.0999756
  c-1.3999634-0.2999878-2.5999756-0.7000122-3.5-1.2000122c-0.8999634-0.4000244-1.2999878-1.0999756-1.1999512-2.0999756
  c0.1999512-1.2000122,0.6999512-2,1.6999512-2.4000244c1-0.5,2-0.7000122,3-0.7000122c2.9000244,0,5,1.1000366,6.4000244,3.2000122
  l8.2000122-7.2000122c-1.5-1.8999634-3.5-3.2000122-6-3.8999634c-2.5-0.7000122-5-1.1000366-7.5-1.1000366
  c-2,0-4,0.2000122-6,0.7000122s-3.8000488,1.2999878-5.5,2.2999878c-1.7000122,1.1000366-3.1000366,2.4000244-4.2000122,4
  c-1.2000122,1.6000366-1.9000244,3.6000366-2.2000122,5.7999878c-0.3999634,2.4000244-0.2000122,4.3000488,0.6000366,5.8000488
  c0.7999878,1.3999634,1.8999634,2.5999756,3.2999878,3.2999878c1.3999634,0.7999878,2.8999634,1.3999634,4.5999756,1.7999878
  s3.2000122,0.7999878,4.6000366,1.0999756c1.3999634,0.3000488,2.5999756,0.8000488,3.5,1.3000488
  c0.8999634,0.5,1.2999878,1.1999512,1.0999756,2.1999512C68.8000488,49.6999512,68.1000366,50.3999634,67,50.7999878z
   M91.3000488,13.999939c0.5,0.6000366,1.2000122,1.1000366,2,1.5C94.1000366,15.8999634,95,16.0999756,95.9000244,16.0999756
  s1.9000244-0.2000122,2.7999878-0.6000366c0.9000244-0.3999634,1.7000122-0.8999634,2.4000244-1.5
  c0.7000122-0.5999756,1.2999878-1.2999878,1.7999878-2.1999512c0.5-0.8000488,0.7999878-1.7000122,0.9000244-2.7000122
  c0.2999878-1.9000244-0.2000122-3.5-1.3000488-4.7999878c-1.0999756-1.3000488-2.5999756-2-4.5-2
  c-0.8999634,0-1.8999634,0.1999512-2.7999878,0.5c-0.8999634,0.3999634-1.7000122,0.8999634-2.3999634,1.5
  C92.1000366,4.8999634,91.5,5.5999756,91,6.499939c-0.5,0.8000488-0.7999878,1.7000122-0.8999634,2.7000122
  c-0.1000366,0.9000244,0,1.7999878,0.1999512,2.7000122C90.4000244,12.6999512,90.8000488,13.3999634,91.3000488,13.999939z
   M101.000061,21.1999512H89.2000122l-5.2999878,38.2000122h11.7999878L101.000061,21.1999512z M163.500061,40.3999634
  c0.1999512-1.2999878,0.3999634-2.5,0.6999512-3.5999756c0.3000488-1.2000122,0.8000488-2.2000122,1.4000244-3.1000366
  c0.5999756-0.8999634,1.5-1.7000122,2.5-2.2000122s2.2999878-0.7999878,3.7999878-0.7999878
  s2.6000366,0.2999878,3.4000244,0.9000244C176,32.1999512,176.5,33,176.8000488,34
  c0.2999878,1,0.2999878,2.0999756,0.1999512,3.2999878c-0.0999756,1.2000122-0.1999512,2.2999878-0.3999634,3.3999634
  L174,59.3999634h11.8000488l2.8999634-21.0999756c0.4000244-2.6000366,0.5-5,0.5-7.2000122
  c-0.0999756-2.2000122-0.5-4.0999756-1.2999878-5.7000122c-0.7999878-1.5999756-2-2.8999634-3.7999878-3.7999878
  C182.4000244,20.6999512,180,20.1999512,177,20.1999512c-1.3999634,0-2.7999878,0.2000122-4,0.6000366
  c-1.2999878,0.3999634-2.3999634,0.7999878-3.2999878,1.3999634c-1,0.6000366-1.7999878,1.2000122-2.5,2
  c-0.7000122,0.7000122-1.2000122,1.5-1.6000366,2.2000122h-0.1999512L169.1000366,0h-11.7999878L149,59.3999634h11.8000488
  L163.500061,40.3999634z M215.1000366,9.8999634h-11.7999878l-1.6000366,11.2999878h-7.5l-1.2999878,9.4000244h7.5
  l-2.6000366,18.2000122c-0.2999878,2.0999756-0.0999756,3.8999634,0.4000244,5.2999878
  c0.5,1.5,1.2999878,2.7000122,2.3999634,3.5999756c1.1000366,0.9000244,2.5,1.6000366,4.1000366,2
  c1.5999756,0.4000244,3.3999634,0.6000366,5.3999634,0.6000366c1.4000244,0,2.8000488-0.1000366,4.2000122-0.2000122
  c1.4000244-0.2000122,2.7999878-0.5,4.2000122-0.9000244l1.2999878-9.7999878
  c-0.5999756,0.5-1.3999634,0.7999878-2.3999634,0.9000244c-1,0.0999756-1.8000488,0.1999512-2.5,0.1999512
  c-1.3000488,0-2.2000122-0.1999512-2.9000244-0.5c-0.7000122-0.2999878-1.2000122-0.7999878-1.5-1.5
  c-0.2999878-0.5999756-0.3999634-1.3999634-0.3999634-2.1999512c0-0.9000244,0.0999756-1.8000488,0.1999512-2.9000244
  l1.8000488-12.7000122H222.5l1.2999878-9.3999634h-10.3999634L215.1000366,9.8999634z"/>
</svg>

