<svg version="1.1" xmlns="http://www.w3.org/2000/svg" xmlns:xlink="http://www.w3.org/1999/xlink" viewBox="0 0 372.583313 72.3833008">
<style type="text/css">
	.st0{fill:#3E8B94;}
	.st1{fill:#303C42;}
	.st2{fill:#A8C643;}
	.st3{fill:#333E48;}
</style>
<defs>
</defs>
<g>
	<polygon class="st0" points="207.1848755,10.4970703 210.1184692,10.4970703 210.7688599,7.7641602 200.5227661,7.7641602 
		199.8723755,10.4970703 203.786438,10.4970703 200.6311646,24.1210938 182.12677,24.1210938 185.28302,10.4970703 
		189.2483521,10.4970703 189.8987427,7.7641602 178.4588013,7.7641602 177.8064575,10.4970703 181.8845825,10.4970703 
		174.5442505,42.3823242 170.9026489,42.3823242 170.2522583,45.1166992 181.4758911,45.1166992 182.1287231,42.3823242 
		177.9417114,42.3823242 181.5320435,26.8564453 200.0374146,26.8564453 196.4456177,42.3823242 192.5344849,42.3823242 
		191.8831177,45.1166992 203.2141724,45.1166992 203.8684692,42.3823242 199.8421021,42.3823242 	"/>
	<polygon class="st0" points="233.6126099,33.4160156 231.5462036,42.3823242 214.6194458,42.3823242 218.1028442,27.3452148 
		231.6897583,27.3452148 232.3381958,24.6113281 218.7503052,24.6113281 222.0159302,10.4970703 238.6184692,10.4970703 
		236.5530396,19.5195312 239.2971802,19.5195312 242.0100708,7.7641602 215.0764771,7.7641602 214.4905396,10.4970703 
		218.6174927,10.4970703 211.2219849,42.3823242 207.4153442,42.3823242 206.8284302,45.1166992 233.6995239,45.1166992 
		236.3557739,33.4160156 	"/>
	<path class="st0" d="M266.1585083,10.4970703h4.1640625l0.6513672-2.7329102h-16.4951172l-0.6533203,2.7329102h4.6943359
		l-16.8798828,31.8852539h-4.7177734l-0.6484375,2.734375h12.4746094l0.6484375-2.734375h-4.4775391l5.8515625-11.2329102
		h14.3886719l1.2548828,11.2329102h-4.5986328l-0.6533203,2.734375h12.8554688l0.6533203-2.734375h-4.8681641
		L266.1585083,10.4970703z M264.9475708,28.4160156h-12.6914062l9.6015625-18.3540039h1.1269531L264.9475708,28.4160156z"/>
	<polygon class="st0" points="298.5979614,42.3823242 283.7356567,42.3823242 291.0774536,10.4970703 295.3684692,10.4970703 
		296.0198364,7.7641602 283.8713989,7.7641602 283.2210083,10.4970703 287.6780396,10.4970703 280.2844849,42.3823242 
		276.0950317,42.3823242 275.5090942,45.1166992 301.239563,45.1166992 304.8225708,29.4482422 301.5872192,29.4482422 	"/>
	<polygon class="st0" points="333.6799927,21.9643555 336.9915161,7.7641602 309.5715942,7.7641602 306.2600708,21.9643555 
		309.0598755,21.9643555 311.7229614,10.4970703 320.9348755,10.4970703 313.5393677,42.3823242 309.4055786,42.3823242 
		308.8225708,45.1166992 320.4778442,45.1166992 321.0637817,42.3823242 316.9387817,42.3823242 324.3323364,10.4970703 
		333.5442505,10.4970703 330.880188,21.9643555 	"/>
	<polygon class="st0" points="362.3372192,7.7641602 361.6868286,10.4970703 365.6018677,10.4970703 362.4456177,24.1210938 
		343.9417114,24.1210938 347.0979614,10.4970703 351.0628052,10.4970703 351.7131958,7.7641602 340.2737427,7.7641602 
		339.6204224,10.4970703 343.6985474,10.4970703 336.3587036,42.3823242 332.7190552,42.3823242 332.067688,45.1166992 
		343.2903442,45.1166992 343.9436646,42.3823242 339.755188,42.3823242 343.3469849,26.8564453 361.8518677,26.8564453 
		358.2600708,42.3823242 354.348938,42.3823242 353.6956177,45.1166992 365.0296021,45.1166992 365.6809692,42.3823242 
		361.6565552,42.3823242 369.0003052,10.4970703 371.9329224,10.4970703 372.583313,7.7641602 	"/>
</g>
<g>
	<path class="st1" d="M171.821106,63.1391602c0.0366211,0.4287109,0.140625,0.8320312,0.3120117,1.2109375
		c0.1708984,0.3789062,0.3969727,0.7060547,0.6782227,0.9814453c0.28125,0.2744141,0.6054688,0.4921875,0.972168,0.6513672
		c0.3666992,0.1582031,0.7636719,0.2382812,1.1918945,0.2382812c0.6479492,0,1.2075195-0.1503906,1.6782227-0.4492188
		c0.4707031-0.2998047,0.828125-0.6455078,1.0727539-1.0371094l0.9355469,0.7705078
		c-0.5136719,0.6484375-1.0791016,1.1123047-1.6967773,1.3935547c-0.6171875,0.28125-1.2807617,0.421875-1.9897461,0.421875
		c-0.6357422,0-1.2255859-0.1132812-1.7695312-0.3388672c-0.5444336-0.2255859-1.0117188-0.5410156-1.4033203-0.9443359
		c-0.3911133-0.4042969-0.699707-0.8808594-0.9257812-1.4306641c-0.2265625-0.5498047-0.3393555-1.1494141-0.3393555-1.7978516
		c0-0.6474609,0.1098633-1.2460938,0.3300781-1.796875s0.5253906-1.0273438,0.9169922-1.4296875
		c0.3911133-0.4042969,0.8496094-0.71875,1.3754883-0.9453125c0.5253906-0.2265625,1.0942383-0.3398438,1.7055664-0.3398438
		c0.6479492,0,1.2285156,0.1171875,1.7421875,0.3496094s0.9443359,0.5410156,1.2929688,0.9257812
		s0.6142578,0.8378906,0.7978516,1.3574219c0.1831055,0.5195312,0.2749023,1.0722656,0.2749023,1.6591797v0.5498047H171.821106z
		 M177.6531372,62.1489258c0-0.8183594-0.2446289-1.4824219-0.7333984-1.9892578
		c-0.4892578-0.5068359-1.1738281-0.7607422-2.0541992-0.7607422c-0.3916016,0-0.7705078,0.0761719-1.137207,0.2285156
		c-0.3666992,0.1533203-0.6875,0.3574219-0.9628906,0.6152344c-0.2749023,0.2558594-0.4951172,0.5498047-0.6601562,0.8798828
		s-0.2475586,0.6728516-0.2475586,1.0263672H177.6531372z"/>
	<path class="st1" d="M183.3933716,62.5161133l-3.1176758-3.9980469h1.6503906l2.3842773,3.2089844l2.2739258-3.2089844h1.5039062
		l-2.9892578,3.9980469l3.5947266,4.5849609h-1.6503906l-2.8798828-3.7597656l-2.769043,3.7597656h-1.5405273
		L183.3933716,62.5161133z"/>
	<path class="st1" d="M190.0139771,58.5180664h1.2109375v1.4306641h0.0361328
		c0.1962891-0.2939453,0.4287109-0.5439453,0.6972656-0.7519531s0.5498047-0.3789062,0.84375-0.5136719
		c0.2929688-0.1337891,0.5957031-0.2314453,0.9082031-0.2939453c0.3115234-0.0605469,0.6074219-0.0917969,0.8886719-0.0917969
		c0.6728516,0,1.2871094,0.1132812,1.84375,0.3398438c0.5556641,0.2265625,1.0361328,0.5410156,1.4394531,0.9453125
		c0.4033203,0.4023438,0.7177734,0.8789062,0.9443359,1.4296875s0.3388672,1.1494141,0.3388672,1.796875
		c0,0.6484375-0.1123047,1.2480469-0.3388672,1.7978516s-0.5410156,1.0263672-0.9443359,1.4306641
		c-0.4033203,0.4033203-0.8837891,0.71875-1.4394531,0.9443359c-0.5566406,0.2255859-1.1708984,0.3388672-1.84375,0.3388672
		c-0.28125,0-0.5771484-0.0302734-0.8886719-0.0917969c-0.3125-0.0605469-0.6152344-0.1582031-0.9082031-0.2929688
		c-0.2939453-0.1347656-0.5751953-0.3056641-0.84375-0.5136719c-0.2685547-0.2070312-0.5009766-0.4589844-0.6972656-0.7519531
		h-0.0361328v6.7128906h-1.2109375V58.5180664z M197.8450317,62.809082c0-0.4765625-0.0761719-0.921875-0.2285156-1.3378906
		c-0.1533203-0.4160156-0.3701172-0.7773438-0.6513672-1.0820312c-0.28125-0.3056641-0.6210938-0.546875-1.0175781-0.7246094
		c-0.3974609-0.1777344-0.8466797-0.265625-1.3486328-0.265625c-0.5009766,0-0.9599609,0.0878906-1.375,0.265625
		c-0.4160156,0.1777344-0.7763672,0.4189453-1.0820312,0.7246094c-0.3056641,0.3046875-0.5439453,0.6660156-0.7158203,1.0820312
		c-0.1708984,0.4160156-0.2558594,0.8613281-0.2558594,1.3378906c0,0.4775391,0.0849609,0.9238281,0.2558594,1.3398438
		c0.171875,0.4150391,0.4101562,0.7753906,0.7158203,1.0820312c0.3056641,0.3046875,0.6660156,0.546875,1.0820312,0.7246094
		c0.4150391,0.1767578,0.8740234,0.265625,1.375,0.265625c0.5019531,0,0.9511719-0.0888672,1.3486328-0.265625
		c0.3964844-0.1777344,0.7363281-0.4199219,1.0175781-0.7246094c0.28125-0.3066406,0.4980469-0.6669922,0.6513672-1.0820312
		C197.7688599,63.7329102,197.8450317,63.2866211,197.8450317,62.809082z"/>
	<path class="st1" d="M202.0628052,63.1391602c0.0371094,0.4287109,0.140625,0.8320312,0.3125,1.2109375
		c0.1708984,0.3789062,0.3964844,0.7060547,0.6777344,0.9814453c0.28125,0.2744141,0.6054688,0.4921875,0.9726562,0.6513672
		c0.3662109,0.1582031,0.7636719,0.2382812,1.1914062,0.2382812c0.6484375,0,1.2080078-0.1503906,1.6787109-0.4492188
		c0.4707031-0.2998047,0.828125-0.6455078,1.0722656-1.0371094l0.9355469,0.7705078
		c-0.5136719,0.6484375-1.0791016,1.1123047-1.6962891,1.3935547s-1.28125,0.421875-1.9902344,0.421875
		c-0.6357422,0-1.2255859-0.1132812-1.7695312-0.3388672s-1.0117188-0.5410156-1.4033203-0.9443359
		c-0.390625-0.4042969-0.6992188-0.8808594-0.9257812-1.4306641s-0.3388672-1.1494141-0.3388672-1.7978516
		c0-0.6474609,0.109375-1.2460938,0.3300781-1.796875c0.2197266-0.5507812,0.5253906-1.0273438,0.9169922-1.4296875
		c0.390625-0.4042969,0.8496094-0.71875,1.375-0.9453125s1.0947266-0.3398438,1.7060547-0.3398438
		c0.6474609,0,1.2285156,0.1171875,1.7421875,0.3496094s0.9443359,0.5410156,1.2929688,0.9257812
		s0.6142578,0.8378906,0.7978516,1.3574219c0.1826172,0.5195312,0.2744141,1.0722656,0.2744141,1.6591797v0.5498047H202.0628052z
		 M207.8948364,62.1489258c0-0.8183594-0.2441406-1.4824219-0.7333984-1.9892578s-1.1738281-0.7607422-2.0537109-0.7607422
		c-0.3916016,0-0.7705078,0.0761719-1.1376953,0.2285156c-0.3662109,0.1533203-0.6875,0.3574219-0.9628906,0.6152344
		c-0.2744141,0.2558594-0.4951172,0.5498047-0.6601562,0.8798828s-0.2470703,0.6728516-0.2470703,1.0263672H207.8948364z"/>
	<path class="st1" d="M217.6702271,60.5356445c-0.2080078-0.3183594-0.4980469-0.5869141-0.8710938-0.8066406
		c-0.3730469-0.2207031-0.7978516-0.3300781-1.2744141-0.3300781c-0.5019531-0.0126953-0.9511719,0.0664062-1.3486328,0.2382812
		c-0.3974609,0.1708984-0.7363281,0.4091797-1.0175781,0.7148438s-0.4951172,0.6699219-0.6416016,1.0917969
		c-0.1474609,0.421875-0.2207031,0.8769531-0.2207031,1.3652344c0,0.4902344,0.0732422,0.9453125,0.2207031,1.3671875
		c0.1464844,0.421875,0.3603516,0.7851562,0.6416016,1.0908203s0.6201172,0.5439453,1.0175781,0.7158203
		c0.3974609,0.1708984,0.8466797,0.25,1.3486328,0.2382812c0.4765625,0,0.9013672-0.1103516,1.2744141-0.3300781
		c0.3730469-0.2207031,0.6630859-0.4892578,0.8710938-0.8076172l0.9902344,0.7519531
		c-0.4277344,0.5009766-0.9111328,0.8710938-1.4492188,1.1103516c-0.5380859,0.2382812-1.0996094,0.3632812-1.6865234,0.375
		c-0.6972656,0.0117188-1.3271484-0.0947266-1.8896484-0.3203125c-0.5625-0.2265625-1.0419922-0.5410156-1.4394531-0.9453125
		c-0.3974609-0.4023438-0.7001953-0.8828125-0.9082031-1.4394531c-0.2080078-0.5556641-0.3115234-1.1582031-0.3115234-1.8066406
		c0-0.6474609,0.1035156-1.25,0.3115234-1.8066406c0.2080078-0.5556641,0.5107422-1.0351562,0.9082031-1.4394531
		c0.3974609-0.4023438,0.8769531-0.7177734,1.4394531-0.9433594c0.5625-0.2265625,1.1923828-0.3339844,1.8896484-0.3222656
		c0.5869141,0.0136719,1.1484375,0.1386719,1.6865234,0.3769531s1.0214844,0.6074219,1.4492188,1.109375L217.6702271,60.5356445z"/>
	<path class="st1" d="M224.6946411,59.6186523h-2.4765625v5.0615234c0,0.3183594,0.0302734,0.578125,0.0917969,0.7792969
		c0.0615234,0.2021484,0.1464844,0.3574219,0.2568359,0.4677734s0.2412109,0.1865234,0.3945312,0.2294922
		c0.1523438,0.0429688,0.3212891,0.0644531,0.5039062,0.0644531c0.2080078,0,0.421875-0.03125,0.6425781-0.0917969
		c0.2197266-0.0615234,0.421875-0.140625,0.6044922-0.2382812l0.0556641,1.1181641
		c-0.453125,0.2080078-0.9970703,0.3115234-1.6328125,0.3115234c-0.2324219,0-0.4736328-0.0302734-0.7236328-0.0917969
		c-0.2509766-0.0605469-0.4804688-0.1767578-0.6884766-0.3476562c-0.2080078-0.171875-0.3789062-0.4042969-0.5136719-0.6972656
		c-0.1337891-0.2929688-0.2011719-0.6787109-0.2011719-1.1552734v-5.4101562h-1.8154297v-1.1005859h1.8154297V56.097168h1.2099609
		v2.4208984h2.4765625V59.6186523z"/>
	<path class="st1" d="M231.442688,53.2368164h1.2099609v6.7119141h0.0371094
		c0.1953125-0.2939453,0.4277344-0.5439453,0.6972656-0.7519531c0.2685547-0.2080078,0.5498047-0.3789062,0.8427734-0.5136719
		c0.2939453-0.1337891,0.5966797-0.2314453,0.9082031-0.2939453c0.3115234-0.0605469,0.6083984-0.0917969,0.8896484-0.0917969
		c0.671875,0,1.2861328,0.1132812,1.8427734,0.3398438s1.0361328,0.5410156,1.4394531,0.9453125
		c0.4042969,0.4023438,0.71875,0.8789062,0.9453125,1.4296875c0.2255859,0.5507812,0.3388672,1.1494141,0.3388672,1.796875
		c0,0.6484375-0.1132812,1.2480469-0.3388672,1.7978516c-0.2265625,0.5498047-0.5410156,1.0263672-0.9453125,1.4306641
		c-0.4033203,0.4033203-0.8828125,0.71875-1.4394531,0.9443359s-1.1708984,0.3388672-1.8427734,0.3388672
		c-0.28125,0-0.578125-0.0302734-0.8896484-0.0917969c-0.3115234-0.0605469-0.6142578-0.1582031-0.9082031-0.2929688
		c-0.2929688-0.1347656-0.5742188-0.3056641-0.8427734-0.5136719c-0.2695312-0.2070312-0.5019531-0.4589844-0.6972656-0.7519531
		h-0.0371094v1.4306641h-1.2099609V53.2368164z M239.2737427,62.809082c0-0.4765625-0.0761719-0.921875-0.2294922-1.3378906
		s-0.3701172-0.7773438-0.6513672-1.0820312c-0.28125-0.3056641-0.6201172-0.546875-1.0175781-0.7246094
		s-0.8466797-0.265625-1.3476562-0.265625c-0.5019531,0-0.9599609,0.0878906-1.3759766,0.265625
		c-0.4150391,0.1777344-0.7763672,0.4189453-1.0820312,0.7246094c-0.3056641,0.3046875-0.5439453,0.6660156-0.7148438,1.0820312
		c-0.171875,0.4160156-0.2568359,0.8613281-0.2568359,1.3378906c0,0.4775391,0.0849609,0.9238281,0.2568359,1.3398438
		c0.1708984,0.4150391,0.4091797,0.7753906,0.7148438,1.0820312c0.3056641,0.3046875,0.6669922,0.546875,1.0820312,0.7246094
		c0.4160156,0.1767578,0.8740234,0.265625,1.3759766,0.265625c0.5009766,0,0.9501953-0.0888672,1.3476562-0.265625
		c0.3974609-0.1777344,0.7363281-0.4199219,1.0175781-0.7246094c0.28125-0.3066406,0.4980469-0.6669922,0.6513672-1.0820312
		C239.1975708,63.7329102,239.2737427,63.2866211,239.2737427,62.809082z"/>
	<path class="st1" d="M243.4915161,63.1391602c0.0371094,0.4287109,0.140625,0.8320312,0.3125,1.2109375
		c0.1708984,0.3789062,0.3964844,0.7060547,0.6777344,0.9814453c0.28125,0.2744141,0.6054688,0.4921875,0.9726562,0.6513672
		c0.3662109,0.1582031,0.7636719,0.2382812,1.1914062,0.2382812c0.6484375,0,1.2080078-0.1503906,1.6787109-0.4492188
		c0.4707031-0.2998047,0.828125-0.6455078,1.0722656-1.0371094l0.9355469,0.7705078
		c-0.5136719,0.6484375-1.0791016,1.1123047-1.6962891,1.3935547s-1.28125,0.421875-1.9902344,0.421875
		c-0.6357422,0-1.2255859-0.1132812-1.7695312-0.3388672s-1.0117188-0.5410156-1.4033203-0.9443359
		c-0.390625-0.4042969-0.6992188-0.8808594-0.9257812-1.4306641s-0.3388672-1.1494141-0.3388672-1.7978516
		c0-0.6474609,0.109375-1.2460938,0.3300781-1.796875c0.2197266-0.5507812,0.5253906-1.0273438,0.9169922-1.4296875
		c0.390625-0.4042969,0.8496094-0.71875,1.375-0.9453125s1.0947266-0.3398438,1.7060547-0.3398438
		c0.6474609,0,1.2285156,0.1171875,1.7421875,0.3496094s0.9443359,0.5410156,1.2929688,0.9257812
		s0.6142578,0.8378906,0.7978516,1.3574219c0.1826172,0.5195312,0.2744141,1.0722656,0.2744141,1.6591797v0.5498047H243.4915161z
		 M249.3235474,62.1489258c0-0.8183594-0.2441406-1.4824219-0.7333984-1.9892578s-1.1738281-0.7607422-2.0537109-0.7607422
		c-0.3916016,0-0.7705078,0.0761719-1.1376953,0.2285156c-0.3662109,0.1533203-0.6875,0.3574219-0.9628906,0.6152344
		c-0.2744141,0.2558594-0.4951172,0.5498047-0.6601562,0.8798828s-0.2470703,0.6728516-0.2470703,1.0263672H249.3235474z"/>
	<path class="st1" d="M257.2835083,59.6186523h-2.4765625v5.0615234c0,0.3183594,0.0302734,0.578125,0.0917969,0.7792969
		c0.0615234,0.2021484,0.1464844,0.3574219,0.2568359,0.4677734s0.2412109,0.1865234,0.3945312,0.2294922
		c0.1523438,0.0429688,0.3212891,0.0644531,0.5039062,0.0644531c0.2080078,0,0.421875-0.03125,0.6425781-0.0917969
		c0.2197266-0.0615234,0.421875-0.140625,0.6044922-0.2382812l0.0556641,1.1181641
		c-0.453125,0.2080078-0.9970703,0.3115234-1.6328125,0.3115234c-0.2324219,0-0.4736328-0.0302734-0.7236328-0.0917969
		c-0.2509766-0.0605469-0.4804688-0.1767578-0.6884766-0.3476562c-0.2080078-0.171875-0.3789062-0.4042969-0.5136719-0.6972656
		c-0.1337891-0.2929688-0.2011719-0.6787109-0.2011719-1.1552734v-5.4101562h-1.8154297v-1.1005859h1.8154297V56.097168h1.2099609
		v2.4208984h2.4765625V59.6186523z"/>
	<path class="st1" d="M263.3713989,59.6186523h-2.4755859v5.0615234c0,0.3183594,0.0302734,0.578125,0.0917969,0.7792969
		c0.0605469,0.2021484,0.1464844,0.3574219,0.2568359,0.4677734c0.109375,0.1103516,0.2412109,0.1865234,0.3935547,0.2294922
		c0.1533203,0.0429688,0.3212891,0.0644531,0.5048828,0.0644531c0.2080078,0,0.421875-0.03125,0.6416016-0.0917969
		c0.2207031-0.0615234,0.421875-0.140625,0.6054688-0.2382812l0.0546875,1.1181641
		c-0.4521484,0.2080078-0.9960938,0.3115234-1.6318359,0.3115234c-0.2324219,0-0.4746094-0.0302734-0.7246094-0.0917969
		c-0.2509766-0.0605469-0.4794922-0.1767578-0.6875-0.3476562c-0.2080078-0.171875-0.3789062-0.4042969-0.5136719-0.6972656
		s-0.2021484-0.6787109-0.2021484-1.1552734v-5.4101562h-1.8154297v-1.1005859h1.8154297V56.097168h1.2109375v2.4208984h2.4755859
		V59.6186523z"/>
	<path class="st1" d="M265.8655396,63.1391602c0.0361328,0.4287109,0.140625,0.8320312,0.3115234,1.2109375
		s0.3974609,0.7060547,0.6787109,0.9814453c0.28125,0.2744141,0.6054688,0.4921875,0.9716797,0.6513672
		c0.3671875,0.1582031,0.7636719,0.2382812,1.1923828,0.2382812c0.6474609,0,1.2070312-0.1503906,1.6777344-0.4492188
		c0.4707031-0.2998047,0.828125-0.6455078,1.0732422-1.0371094l0.9355469,0.7705078
		c-0.5136719,0.6484375-1.0791016,1.1123047-1.6972656,1.3935547c-0.6171875,0.28125-1.2802734,0.421875-1.9892578,0.421875
		c-0.6357422,0-1.2255859-0.1132812-1.7695312-0.3388672c-0.5449219-0.2255859-1.0117188-0.5410156-1.4033203-0.9443359
		c-0.3916016-0.4042969-0.7001953-0.8808594-0.9257812-1.4306641c-0.2265625-0.5498047-0.3398438-1.1494141-0.3398438-1.7978516
		c0-0.6474609,0.1103516-1.2460938,0.3300781-1.796875c0.2207031-0.5507812,0.5253906-1.0273438,0.9169922-1.4296875
		c0.3916016-0.4042969,0.8496094-0.71875,1.3759766-0.9453125c0.5253906-0.2265625,1.09375-0.3398438,1.7050781-0.3398438
		c0.6484375,0,1.2285156,0.1171875,1.7421875,0.3496094s0.9443359,0.5410156,1.2929688,0.9257812
		s0.6142578,0.8378906,0.7978516,1.3574219s0.2753906,1.0722656,0.2753906,1.6591797v0.5498047H265.8655396z
		 M271.6975708,62.1489258c0-0.8183594-0.2451172-1.4824219-0.7333984-1.9892578
		c-0.4892578-0.5068359-1.1738281-0.7607422-2.0546875-0.7607422c-0.3916016,0-0.7705078,0.0761719-1.1367188,0.2285156
		c-0.3671875,0.1533203-0.6875,0.3574219-0.9628906,0.6152344c-0.2753906,0.2558594-0.4951172,0.5498047-0.6601562,0.8798828
		s-0.2480469,0.6728516-0.2480469,1.0263672H271.6975708z"/>
	<path class="st1" d="M275.3469849,61.1958008c0-0.3789062-0.0097656-0.7636719-0.0273438-1.1552734
		c-0.0185547-0.3916016-0.0341797-0.8994141-0.0458984-1.5224609h1.1914062v1.5957031h0.0371094
		c0.0849609-0.2324219,0.2080078-0.4550781,0.3671875-0.6699219c0.1582031-0.2128906,0.3505859-0.40625,0.5771484-0.5771484
		s0.4892578-0.3085938,0.7890625-0.4130859c0.2988281-0.1035156,0.6386719-0.15625,1.0175781-0.15625
		c0.3417969,0,0.6416016,0.0371094,0.8984375,0.1113281l-0.2382812,1.1914062
		c-0.1591797-0.0605469-0.3916016-0.0917969-0.6972656-0.0917969c-0.4648438,0-0.8613281,0.0888672-1.1914062,0.265625
		c-0.3300781,0.1777344-0.6054688,0.4042969-0.8251953,0.6796875c-0.2207031,0.2744141-0.3828125,0.5703125-0.4863281,0.8886719
		c-0.1044922,0.3183594-0.15625,0.6230469-0.15625,0.9169922v4.8417969h-1.2099609V61.1958008z"/>
	<path class="st1" d="M286.4055786,53.2368164h1.2099609v6.65625h0.0371094
		c0.1347656-0.2314453,0.3056641-0.4453125,0.5136719-0.640625c0.2070312-0.1962891,0.4394531-0.3642578,0.6962891-0.5048828
		s0.5292969-0.2509766,0.8164062-0.3300781s0.5712891-0.1201172,0.8525391-0.1201172
		c1.1005859,0,1.9140625,0.2910156,2.4394531,0.8710938c0.5253906,0.5820312,0.7890625,1.4101562,0.7890625,2.4863281v5.4462891
		h-1.2109375v-4.75c0-0.9541016-0.1650391-1.6845703-0.4951172-2.1914062s-0.9414062-0.7607422-1.8339844-0.7607422
		c-0.0615234,0-0.2324219,0.0234375-0.5136719,0.0722656c-0.28125,0.0498047-0.5771484,0.1835938-0.8896484,0.4042969
		c-0.3115234,0.2197266-0.5898438,0.5498047-0.8339844,0.9902344c-0.2451172,0.4394531-0.3671875,1.0517578-0.3671875,1.8339844
		v4.4013672h-1.2099609V53.2368164z"/>
	<path class="st1" d="M297.4456177,63.1391602c0.0371094,0.4287109,0.140625,0.8320312,0.3125,1.2109375
		c0.1708984,0.3789062,0.3964844,0.7060547,0.6777344,0.9814453c0.28125,0.2744141,0.6054688,0.4921875,0.9726562,0.6513672
		c0.3662109,0.1582031,0.7636719,0.2382812,1.1914062,0.2382812c0.6484375,0,1.2080078-0.1503906,1.6787109-0.4492188
		c0.4707031-0.2998047,0.828125-0.6455078,1.0722656-1.0371094l0.9355469,0.7705078
		c-0.5136719,0.6484375-1.0791016,1.1123047-1.6962891,1.3935547s-1.28125,0.421875-1.9902344,0.421875
		c-0.6357422,0-1.2255859-0.1132812-1.7695312-0.3388672s-1.0117188-0.5410156-1.4033203-0.9443359
		c-0.390625-0.4042969-0.6992188-0.8808594-0.9257812-1.4306641s-0.3388672-1.1494141-0.3388672-1.7978516
		c0-0.6474609,0.109375-1.2460938,0.3300781-1.796875c0.2197266-0.5507812,0.5253906-1.0273438,0.9169922-1.4296875
		c0.390625-0.4042969,0.8496094-0.71875,1.375-0.9453125s1.0947266-0.3398438,1.7060547-0.3398438
		c0.6474609,0,1.2285156,0.1171875,1.7421875,0.3496094s0.9443359,0.5410156,1.2929688,0.9257812
		s0.6142578,0.8378906,0.7978516,1.3574219c0.1826172,0.5195312,0.2744141,1.0722656,0.2744141,1.6591797v0.5498047H297.4456177z
		 M303.2776489,62.1489258c0-0.8183594-0.2441406-1.4824219-0.7333984-1.9892578s-1.1738281-0.7607422-2.0537109-0.7607422
		c-0.3916016,0-0.7705078,0.0761719-1.1376953,0.2285156c-0.3662109,0.1533203-0.6875,0.3574219-0.9628906,0.6152344
		c-0.2744141,0.2558594-0.4951172,0.5498047-0.6601562,0.8798828s-0.2470703,0.6728516-0.2470703,1.0263672H303.2776489z"/>
	<path class="st1" d="M312.3010864,61.8374023v-0.2197266c0-1.4794922-0.7333984-2.21875-2.2011719-2.21875
		c-1.0019531,0-1.8769531,0.3359375-2.6220703,1.0078125l-0.7333984-0.8613281
		c0.8066406-0.8320312,2.0166016-1.2480469,3.6308594-1.2480469c0.4150391,0,0.8164062,0.0625,1.2011719,0.1835938
		c0.3847656,0.1230469,0.7177734,0.3095703,1,0.5605469c0.2802734,0.25,0.5068359,0.5644531,0.6777344,0.9433594
		c0.171875,0.3789062,0.2568359,0.8320312,0.2568359,1.3574219v3.8330078c0,0.3300781,0.015625,0.6757812,0.0458984,1.0361328
		c0.0302734,0.3613281,0.0644531,0.6582031,0.1015625,0.8896484h-1.1738281
		c-0.0371094-0.2080078-0.0644531-0.4345703-0.0830078-0.6787109s-0.0273438-0.4824219-0.0273438-0.7148438h-0.0371094
		c-0.3544922,0.5742188-0.7734375,0.9873047-1.2558594,1.2382812c-0.4833984,0.25-1.0732422,0.375-1.7695312,0.375
		c-0.3789062,0-0.7460938-0.0517578-1.1005859-0.15625c-0.3544922-0.1035156-0.6699219-0.2617188-0.9443359-0.4765625
		c-0.2753906-0.2128906-0.4951172-0.4765625-0.6601562-0.7880859s-0.2480469-0.6748047-0.2480469-1.0908203
		c0-0.6972656,0.1806641-1.2441406,0.5410156-1.6425781c0.3603516-0.3964844,0.8134766-0.6933594,1.3574219-0.8886719
		s1.125-0.3183594,1.7421875-0.3671875s1.1826172-0.0732422,1.6962891-0.0732422H312.3010864z M311.677063,62.8286133
		c-0.3056641,0-0.6875,0.0146484-1.1455078,0.0449219c-0.4589844,0.03125-0.8994141,0.1044922-1.3212891,0.2207031
		s-0.7822266,0.296875-1.0820312,0.5410156s-0.4492188,0.5800781-0.4492188,1.0078125
		c0,0.28125,0.0585938,0.5234375,0.1748047,0.7246094c0.1162109,0.2021484,0.2714844,0.3671875,0.4677734,0.4960938
		c0.1953125,0.1279297,0.4121094,0.21875,0.6503906,0.2744141s0.4804688,0.0830078,0.7246094,0.0830078
		c0.4404297,0,0.8222656-0.0742188,1.1464844-0.2207031c0.3232422-0.1464844,0.5957031-0.3457031,0.8164062-0.5957031
		c0.2197266-0.25,0.3818359-0.5439453,0.4853516-0.8808594c0.1035156-0.3359375,0.15625-0.6933594,0.15625-1.0722656v-0.6230469
		H311.677063z"/>
	<path class="st1" d="M317.8030396,67.1010742h-1.2099609V53.2368164h1.2099609V67.1010742z"/>
	<path class="st1" d="M325.1575317,59.6186523h-2.4765625v5.0615234c0,0.3183594,0.0302734,0.578125,0.0917969,0.7792969
		c0.0615234,0.2021484,0.1464844,0.3574219,0.2568359,0.4677734s0.2412109,0.1865234,0.3945312,0.2294922
		c0.1523438,0.0429688,0.3212891,0.0644531,0.5039062,0.0644531c0.2080078,0,0.421875-0.03125,0.6425781-0.0917969
		c0.2197266-0.0615234,0.421875-0.140625,0.6044922-0.2382812l0.0556641,1.1181641
		c-0.453125,0.2080078-0.9970703,0.3115234-1.6328125,0.3115234c-0.2324219,0-0.4736328-0.0302734-0.7236328-0.0917969
		c-0.2509766-0.0605469-0.4804688-0.1767578-0.6884766-0.3476562c-0.2080078-0.171875-0.3789062-0.4042969-0.5136719-0.6972656
		c-0.1337891-0.2929688-0.2011719-0.6787109-0.2011719-1.1552734v-5.4101562h-1.8154297v-1.1005859h1.8154297V56.097168h1.2099609
		v2.4208984h2.4765625V59.6186523z"/>
	<path class="st1" d="M326.8069458,53.2368164h1.2109375v6.65625h0.0361328
		c0.1347656-0.2314453,0.3056641-0.4453125,0.5136719-0.640625c0.2080078-0.1962891,0.4404297-0.3642578,0.6972656-0.5048828
		s0.5283203-0.2509766,0.8164062-0.3300781c0.2871094-0.0791016,0.5712891-0.1201172,0.8525391-0.1201172
		c1.1005859,0,1.9130859,0.2910156,2.4394531,0.8710938c0.5253906,0.5820312,0.7880859,1.4101562,0.7880859,2.4863281v5.4462891
		h-1.2099609v-4.75c0-0.9541016-0.1650391-1.6845703-0.4951172-2.1914062s-0.9423828-0.7607422-1.8339844-0.7607422
		c-0.0615234,0-0.2324219,0.0234375-0.5136719,0.0722656c-0.28125,0.0498047-0.578125,0.1835938-0.8896484,0.4042969
		c-0.3115234,0.2197266-0.5898438,0.5498047-0.8349609,0.9902344c-0.2441406,0.4394531-0.3662109,1.0517578-0.3662109,1.8339844
		v4.4013672h-1.2109375V53.2368164z"/>
	<path class="st1" d="M343.2581177,60.5356445c-0.2080078-0.3183594-0.4980469-0.5869141-0.8710938-0.8066406
		c-0.3730469-0.2207031-0.7978516-0.3300781-1.2744141-0.3300781c-0.5019531-0.0126953-0.9511719,0.0664062-1.3486328,0.2382812
		c-0.3974609,0.1708984-0.7363281,0.4091797-1.0175781,0.7148438s-0.4951172,0.6699219-0.6416016,1.0917969
		c-0.1474609,0.421875-0.2207031,0.8769531-0.2207031,1.3652344c0,0.4902344,0.0732422,0.9453125,0.2207031,1.3671875
		c0.1464844,0.421875,0.3603516,0.7851562,0.6416016,1.0908203s0.6201172,0.5439453,1.0175781,0.7158203
		c0.3974609,0.1708984,0.8466797,0.25,1.3486328,0.2382812c0.4765625,0,0.9013672-0.1103516,1.2744141-0.3300781
		c0.3730469-0.2207031,0.6630859-0.4892578,0.8710938-0.8076172l0.9902344,0.7519531
		c-0.4277344,0.5009766-0.9111328,0.8710938-1.4492188,1.1103516c-0.5380859,0.2382812-1.0996094,0.3632812-1.6865234,0.375
		c-0.6972656,0.0117188-1.3271484-0.0947266-1.8896484-0.3203125c-0.5625-0.2265625-1.0419922-0.5410156-1.4394531-0.9453125
		c-0.3974609-0.4023438-0.7001953-0.8828125-0.9082031-1.4394531c-0.2080078-0.5556641-0.3115234-1.1582031-0.3115234-1.8066406
		c0-0.6474609,0.1035156-1.25,0.3115234-1.8066406c0.2080078-0.5556641,0.5107422-1.0351562,0.9082031-1.4394531
		c0.3974609-0.4023438,0.8769531-0.7177734,1.4394531-0.9433594c0.5625-0.2265625,1.1923828-0.3339844,1.8896484-0.3222656
		c0.5869141,0.0136719,1.1484375,0.1386719,1.6865234,0.3769531s1.0214844,0.6074219,1.4492188,1.109375L343.2581177,60.5356445z"/>
	<path class="st1" d="M351.3450317,61.8374023v-0.2197266c0-1.4794922-0.7333984-2.21875-2.2001953-2.21875
		c-1.0029297,0-1.8769531,0.3359375-2.6230469,1.0078125l-0.7333984-0.8613281
		c0.8066406-0.8320312,2.0175781-1.2480469,3.6308594-1.2480469c0.4160156,0,0.8164062,0.0625,1.2021484,0.1835938
		c0.3847656,0.1230469,0.7177734,0.3095703,0.9990234,0.5605469c0.28125,0.25,0.5068359,0.5644531,0.6787109,0.9433594
		c0.1708984,0.3789062,0.2568359,0.8320312,0.2568359,1.3574219v3.8330078c0,0.3300781,0.0146484,0.6757812,0.0458984,1.0361328
		c0.0302734,0.3613281,0.0634766,0.6582031,0.1005859,0.8896484h-1.1738281
		c-0.0361328-0.2080078-0.0644531-0.4345703-0.0820312-0.6787109c-0.0185547-0.2441406-0.0283203-0.4824219-0.0283203-0.7148438
		h-0.0361328c-0.3544922,0.5742188-0.7734375,0.9873047-1.2568359,1.2382812c-0.4824219,0.25-1.0722656,0.375-1.7695312,0.375
		c-0.3789062,0-0.7460938-0.0517578-1.1005859-0.15625c-0.3544922-0.1035156-0.6689453-0.2617188-0.9443359-0.4765625
		c-0.2744141-0.2128906-0.4951172-0.4765625-0.6601562-0.7880859s-0.2470703-0.6748047-0.2470703-1.0908203
		c0-0.6972656,0.1796875-1.2441406,0.5410156-1.6425781c0.3603516-0.3964844,0.8125-0.6933594,1.3564453-0.8886719
		s1.125-0.3183594,1.7421875-0.3671875c0.6181641-0.0488281,1.1835938-0.0732422,1.6972656-0.0732422H351.3450317z
		 M350.7219849,62.8286133c-0.3056641,0-0.6875,0.0146484-1.1464844,0.0449219
		c-0.4580078,0.03125-0.8984375,0.1044922-1.3203125,0.2207031s-0.7822266,0.296875-1.0820312,0.5410156
		s-0.4492188,0.5800781-0.4492188,1.0078125c0,0.28125,0.0576172,0.5234375,0.1738281,0.7246094
		c0.1162109,0.2021484,0.2724609,0.3671875,0.4677734,0.4960938c0.1953125,0.1279297,0.4130859,0.21875,0.6513672,0.2744141
		s0.4794922,0.0830078,0.7246094,0.0830078c0.4394531,0,0.8212891-0.0742188,1.1455078-0.2207031
		s0.5966797-0.3457031,0.8164062-0.5957031s0.3818359-0.5439453,0.4863281-0.8808594
		c0.1035156-0.3359375,0.1552734-0.6933594,0.1552734-1.0722656v-0.6230469H350.7219849z"/>
	<path class="st1" d="M355.4905396,61.1958008c0-0.3789062-0.0097656-0.7636719-0.0273438-1.1552734
		c-0.0185547-0.3916016-0.0341797-0.8994141-0.0458984-1.5224609h1.1914062v1.5957031h0.0371094
		c0.0849609-0.2324219,0.2080078-0.4550781,0.3671875-0.6699219c0.1582031-0.2128906,0.3505859-0.40625,0.5771484-0.5771484
		s0.4892578-0.3085938,0.7890625-0.4130859c0.2988281-0.1035156,0.6386719-0.15625,1.0175781-0.15625
		c0.3417969,0,0.6416016,0.0371094,0.8984375,0.1113281l-0.2382812,1.1914062
		c-0.1591797-0.0605469-0.3916016-0.0917969-0.6972656-0.0917969c-0.4648438,0-0.8613281,0.0888672-1.1914062,0.265625
		c-0.3300781,0.1777344-0.6054688,0.4042969-0.8251953,0.6796875c-0.2207031,0.2744141-0.3828125,0.5703125-0.4863281,0.8886719
		c-0.1044922,0.3183594-0.15625,0.6230469-0.15625,0.9169922v4.8417969h-1.2099609V61.1958008z"/>
	<path class="st1" d="M361.9641724,63.1391602c0.0361328,0.4287109,0.140625,0.8320312,0.3115234,1.2109375
		s0.3974609,0.7060547,0.6787109,0.9814453c0.28125,0.2744141,0.6054688,0.4921875,0.9716797,0.6513672
		c0.3671875,0.1582031,0.7636719,0.2382812,1.1923828,0.2382812c0.6474609,0,1.2070312-0.1503906,1.6777344-0.4492188
		c0.4707031-0.2998047,0.828125-0.6455078,1.0732422-1.0371094l0.9355469,0.7705078
		c-0.5136719,0.6484375-1.0791016,1.1123047-1.6972656,1.3935547c-0.6171875,0.28125-1.2802734,0.421875-1.9892578,0.421875
		c-0.6357422,0-1.2255859-0.1132812-1.7695312-0.3388672c-0.5449219-0.2255859-1.0117188-0.5410156-1.4033203-0.9443359
		c-0.3916016-0.4042969-0.7001953-0.8808594-0.9257812-1.4306641c-0.2265625-0.5498047-0.3398438-1.1494141-0.3398438-1.7978516
		c0-0.6474609,0.1103516-1.2460938,0.3300781-1.796875c0.2207031-0.5507812,0.5253906-1.0273438,0.9169922-1.4296875
		c0.3916016-0.4042969,0.8496094-0.71875,1.3759766-0.9453125c0.5253906-0.2265625,1.09375-0.3398438,1.7050781-0.3398438
		c0.6484375,0,1.2285156,0.1171875,1.7421875,0.3496094s0.9443359,0.5410156,1.2929688,0.9257812
		s0.6142578,0.8378906,0.7978516,1.3574219s0.2753906,1.0722656,0.2753906,1.6591797v0.5498047H361.9641724z
		 M367.7962036,62.1489258c0-0.8183594-0.2451172-1.4824219-0.7333984-1.9892578
		c-0.4892578-0.5068359-1.1738281-0.7607422-2.0546875-0.7607422c-0.3916016,0-0.7705078,0.0761719-1.1367188,0.2285156
		c-0.3671875,0.1533203-0.6875,0.3574219-0.9628906,0.6152344c-0.2753906,0.2558594-0.4951172,0.5498047-0.6601562,0.8798828
		s-0.2480469,0.6728516-0.2480469,1.0263672H367.7962036z"/>
</g>
<g>
	<path class="st2" d="M164.8982849,63.6279297l-6.0079956-8.1269531l-0.4670105,3.1162109l-54.9489975,0.0029297h-5.9799957
		c-2.6779938-0.0170898-4.7460022-0.6738281-6.1909943-1.980957c-0.9060059-0.8208008-1.5650024-1.7988281-2.0310059-2.8989258
		h-8.9619904c1.0169983,3.5507812,2.6899872,6.3798828,5.0249939,8.4799805
		c2.9129944,2.6181641,6.8999939,4.0107422,11.9320068,4.2060547l0.6429901,0.0209961l0.5610046,0.0180664l0.0169983,0.0009766
		h7.1909943l30.0489883-0.0039062h21.5190125l-0.4760132,3.1738281L164.8982849,63.6279297z"/>
	<path class="st3" d="M21.435997,14.4882812h-0.1190033L9.9749985,28.9780273h9.4419937L21.435997,14.4882812z
		 M18.3479996,36.4589844H0l1.067997-7.480957L21.9109955,2.8500977h9.737999l-3.6809998,26.1279297h5.4029999l-1.0680008,7.480957
		h-5.4039993l-1.1279984,8.4321289h-8.5510025L18.3479996,36.4589844z"/>
	<path class="st1" d="M56.112999,24.5234375c-1.0680008-1.6225586-2.6920013-2.4335938-4.8690033-2.4335938
		c-0.7519989,0-1.5049973,0.1777344-2.2559967,0.5327148c-0.753006,0.3569336-1.1880035,0.9711914-1.3070068,1.8413086
		c-0.1189957,0.7128906,0.1790009,1.2387695,0.8910065,1.574707c0.711998,0.3359375,1.6029968,0.6333008,2.6719971,0.8911133
		c1.0690002,0.2568359,2.2269974,0.5332031,3.473999,0.8300781c1.2470016,0.2978516,2.3840027,0.7626953,3.4150009,1.3959961
		c1.0279999,0.6337891,1.8300018,1.4941406,2.4049988,2.5839844c0.5719986,1.0888672,0.7409973,2.5429688,0.5039978,4.362793
		c-0.237999,1.8613281-0.8519974,3.3950195-1.8409958,4.6020508c-0.9899979,1.2089844-2.1679993,2.1782227-3.5330048,2.9111328
		c-1.3659973,0.7319336-2.859993,1.2460938-4.4829941,1.5429688c-1.6240005,0.2978516-3.2070007,0.4458008-4.7509995,0.4458008
		c-2.0180054,0-4.0180054-0.2885742-5.9970016-0.8608398c-1.9800034-0.5737305-3.5830002-1.5952148-4.8099976-3.059082
		l6.234993-5.9980469c0.7130051,1.0302734,1.5340042,1.8110352,2.465004,2.3461914
		c0.9290009,0.5351562,2.0670013,0.8027344,3.4140015,0.8027344c1.0289993,0,1.9789963-0.1499023,2.8499985-0.4467773
		c0.8700027-0.2958984,1.3659973-0.8398438,1.4850006-1.6318359c0.1179962-0.7519531-0.1689987-1.315918-0.8619995-1.6933594
		c-0.6920013-0.375-1.5830002-0.690918-2.6710052-0.949707c-1.0899963-0.2573242-2.2569962-0.5332031-3.5039978-0.8310547
		c-1.2470016-0.296875-2.3959961-0.7421875-3.4440002-1.3359375c-1.0499954-0.5952148-1.8709946-1.434082-2.4649963-2.5239258
		c-0.5940018-1.0893555-0.7519989-2.5429688-0.4749985-4.3642578c0.237999-1.7021484,0.7919998-3.1660156,1.6629944-4.3950195
		c0.8710022-1.2260742,1.9300003-2.2348633,3.177002-3.0288086c1.2470016-0.7900391,2.6220016-1.3740234,4.1269989-1.7509766
		c1.5039978-0.3769531,3.0080032-0.5649414,4.5130005-0.5649414c1.9000015,0,3.7799988,0.277832,5.6409988,0.8330078
		c1.8600006,0.5537109,3.3639984,1.5429688,4.5130005,2.96875L56.112999,24.5234375z"/>
	<path class="st1" d="M67.9297867,6.9472656c0.1190033-0.7128906,0.3569946-1.3857422,0.7129974-2.0195312
		c0.3560028-0.6333008,0.802002-1.1772461,1.3359985-1.6323242c0.5350037-0.4541016,1.1380005-0.8208008,1.8119965-1.0991211
		C72.4627762,1.9204102,73.1557846,1.78125,73.8677902,1.78125c1.4259949,0,2.5639954,0.5053711,3.4149933,1.5141602
		c0.8509979,1.0092773,1.177002,2.2260742,0.9799957,3.6518555c-0.0800018,0.7124023-0.2979889,1.3862305-0.6529999,2.0180664
		c-0.3560028,0.6333008-0.802002,1.1791992-1.3369904,1.6333008c-0.5340118,0.4560547-1.1370087,0.8217773-1.8110046,1.0986328
		c-0.6730042,0.2773438-1.3650055,0.4169922-2.0780029,0.4169922c-0.7120056,0-1.3659973-0.1396484-1.9589996-0.4169922
		c-0.5939941-0.2768555-1.0890045-0.6425781-1.4839935-1.0986328c-0.3970032-0.4541016-0.6829987-1-0.8619995-1.6333008
		C67.9007797,8.3334961,67.8507767,7.659668,67.9297867,6.9472656 M67.3957901,16.03125h8.9069977l-4.0380096,28.8603516h-8.9069901
		L67.3957901,16.03125z"/>
	<path class="st1" d="M127.7251968,0l-2.7900085,19.9511719h0.1179962c0.2770081-0.5546875,0.6829987-1.1069336,1.2170105-1.6630859
		c0.5349884-0.5527344,1.1669922-1.046875,1.9000015-1.4838867c0.7319946-0.4350586,1.5749817-0.7919922,2.5239868-1.0678711
		c0.9500122-0.2768555,1.9599915-0.4169922,3.0289917-0.4169922c2.256012,0,4.0370178,0.3481445,5.3440247,1.0400391
		c1.3069763,0.6928711,2.2559814,1.652832,2.8499756,2.8789062c0.5940247,1.2290039,0.9100037,2.6738281,0.9510193,4.3349609
		c0.0379944,1.6630859-0.0800171,3.4648438-0.3569946,5.4047852l-2.1970215,15.9130859h-8.9069824l1.9589844-14.1318359
		c0.1190186-0.8310547,0.2180176-1.6938477,0.2969971-2.5839844c0.07901-0.8901367,0.0190125-1.7109375-0.1779785-2.4638672
		c-0.197998-0.7509766-0.5740051-1.3652344-1.1280212-1.8413086c-0.5549927-0.4750977-1.4059753-0.7128906-2.5539856-0.7128906
		s-2.1070023,0.2080078-2.8799973,0.6230469c-0.7710114,0.4179688-1.3940125,0.972168-1.8700104,1.6640625
		c-0.4749908,0.6928711-0.8309937,1.4741211-1.0690002,2.3457031c-0.2369995,0.8710938-0.4149933,1.78125-0.5339966,2.7314453
		l-2.0189972,14.3696289h-8.9069977L118.8181839,0H127.7251968z"/>
	<path class="st1" d="M168.1036072,23.1572266h-7.8390198l-1.3649902,9.6201172
		c-0.1190186,0.7919922-0.178009,1.5141602-0.178009,2.1689453c0,0.6523438,0.1080017,1.215332,0.3260193,1.6899414
		c0.2179871,0.4760742,0.5939941,0.8422852,1.1289978,1.0991211c0.5349731,0.2592773,1.276001,0.387207,2.2269897,0.387207
		c0.4750061,0,1.0979919-0.0493164,1.8699951-0.1499023c0.7720032-0.0981445,1.375-0.3251953,1.8099976-0.6821289
		l-1.0090027,7.4228516c-1.0289917,0.355957-2.0879822,0.5932617-3.177002,0.7128906
		c-1.0889893,0.1181641-2.1479797,0.1782227-3.1759949,0.1782227c-1.5050049,0-2.8710022-0.1591797-4.0969849-0.4750977
		c-1.2279968-0.3168945-2.2669983-0.8227539-3.1180115-1.5141602c-0.8519897-0.6928711-1.4649963-1.5947266-1.8410034-2.7026367
		c-0.3769836-1.1079102-0.4660034-2.4541016-0.2669983-4.0380859l1.9590149-13.7172852h-5.7000122l1.0100098-7.1259766h5.6999817
		l1.1870117-8.5498047h8.9079895l-1.1879883,8.5498047h7.8389893L168.1036072,23.1572266z"/>
	<path class="st1" d="M101.5982895,30.4233398c-0.1179962,0.9506836-0.4260101,1.8515625-0.9199982,2.7016602
		c-0.4950104,0.8520508-1.1090088,1.6030273-1.8400116,2.2563477c-0.7329865,0.652832-1.5649872,1.1787109-2.4949951,1.5727539
		c-0.9299927,0.3969727-1.8899994,0.5952148-2.8789978,0.5952148c-1.0310059,0-1.951004-0.1982422-2.7610016-0.5952148
		c-0.8130035-0.394043-1.4850006-0.9199219-2.0200043-1.5727539c-0.5339966-0.6533203-0.9199982-1.4042969-1.1569977-2.2563477
		c-0.2379913-0.8500977-0.2979889-1.7509766-0.1790009-2.7016602c0.1190033-0.9501953,0.4250031-1.8500977,0.9210052-2.7011719
		c0.4940033-0.8520508,1.1080017-1.6040039,1.8410034-2.2568359c0.7319946-0.6523438,1.5529938-1.1772461,2.4639893-1.5732422
		c0.9100037-0.3959961,1.8800049-0.5947266,2.9100037-0.5947266c0.9889984,0,1.8990021,0.1987305,2.7310028,0.5947266
		s1.5149994,0.9208984,2.048996,1.5732422c0.5339966,0.652832,0.9199982,1.4047852,1.1580048,2.2568359
		C101.658287,28.5732422,101.7172928,29.4731445,101.5982895,30.4233398 M103.6182938,16.1708984l-0.5350037,3.8022461h-0.1190033
		c-0.2770081-0.5141602-0.6730042-1.0400391-1.1869965-1.5732422c-0.5149994-0.5356445-1.1580048-1.0195312-1.9300079-1.4555664
		c-0.7720032-0.4350586-1.6719971-0.7919922-2.7019958-1.0683594c-1.0299988-0.2768555-2.177002-0.4169922-3.4440002-0.4169922
		c-2.0590057,0-3.9589996,0.425293-5.701004,1.2773438c-1.7419891,0.8520508-3.276001,1.9697266-4.6009979,3.3549805
		c-1.3269958,1.3867188-2.4160004,2.9897461-3.2669983,4.8085938c-0.8509979,1.8222656-1.4149933,3.6821289-1.6920013,5.5830078
		c-0.3170013,2.1772461-0.2669983,4.1762695,0.1490021,5.9970703c0.4149933,1.8212891,1.1580048,3.394043,2.2259979,4.7211914
		c1.0690002,1.3271484,2.423996,2.3549805,4.0680084,3.0869141c1.6419983,0.7338867,3.5329895,1.0981445,5.67099,1.0981445
		c1.3450012,0,2.8200073-0.2861328,4.4230042-0.8613281c1.6040039-0.5727539,3.0189972-1.5507812,4.2460022-2.9379883h0.1190033
		l-0.4150085,2.7910156c-0.3179932,2.0571289-1.2079926,3.7509766-2.6730042,5.0771484
		c-1.4449921,1.3081055-3.5119934,1.9648438-6.1909943,1.9829102H43.0812912l0.4759979-3.1738281l-8.1269989,6.0078125
		l6.0080032,8.1269531l0.4669952-3.1157227l48.3850021-0.0400391c5.0319977-0.1948242,9.0189972-1.5878906,11.9319916-4.2070312
		c3.1470032-2.8300781,5.0970001-6.9760742,5.8500061-12.4389648l3.7400055-26.4262695H103.6182938z"/>
</g>
</svg>
